<svg xmlns="http://www.w3.org/2000/svg" width="296" height="133" viewBox="0 0 296 133"><title>list3-small</title><path d="M292.8,69.2a11,11,0,0,0-.2-1.8,6.8,6.8,0,0,1-.2-1.5,10.5,10.5,0,0,0-.7-4.3,9.3,9.3,0,0,0-2.6-3.3c-2.2-2.1-4.5-4.1-6.8-6.1a56.9,56.9,0,0,1-5.7-6.3c-2-2.4-3.8-5.2-6.2-7.3a38.2,38.2,0,0,0-7.9-5.1,41.4,41.4,0,0,0-4.3-2,23.8,23.8,0,0,0-5-1.5,18.4,18.4,0,0,0-4.7.1c-1.6.1-3.3.6-4.8.3.8-1.4,2.5-2.4,3.5-3.7s1.3-3,0-4.5-5.9-4.3-9.3-5.7a31.6,31.6,0,0,0-5.4-2l-5.7-1.1c-3.8-.7-7.2-2.3-10.9-3.2A56.5,56.5,0,0,0,203,8.4a25.9,25.9,0,0,1-5.6-.4A48.1,48.1,0,0,1,192,6.4l-5.1-1.8L182,2.7a31.6,31.6,0,0,0-10.6-1.5,19.8,19.8,0,0,0-9.8,2.4A17.7,17.7,0,0,0,156.9,7c-1.4,1.3-2.7,2.9-4.1,4.2a54,54,0,0,1,1.8-5.7c.5-1.4.8-3.7-1.5-3.2a38.8,38.8,0,0,1-11.8,1c-4.2-.3-8.2-.7-12.4-.1A37.1,37.1,0,0,0,117.7,7l-10.9,5.1c-3.5,1.6-7.2,3.2-10.3,5.6a44,44,0,0,0-8.1,8.6c-2.3,3-5.2,5.4-7.7,8.3a13.6,13.6,0,0,0-2.9,12.3,16.4,16.4,0,0,0,2.8,5.8,36.4,36.4,0,0,0,4.3,4.5c-6.2-.1-12.4-.5-18.6-1.1a104.6,104.6,0,0,1-18.5-2.8c-5.9-1.5-11.8-3.1-17.6-5.2-2.7-1-5.3-2.3-8-3.5l-8.5-3.9A66.1,66.1,0,0,1,6,36.3a32.1,32.1,0,0,0-3-2.1c-.9-.5-3.1-1.2-3,.7s1.6,1.9,2.4,2.5L6.3,40c2.6,1.6,5.3,3,7.9,4.4a140.6,140.6,0,0,0,17,6.9l3.7,1.4c1.4.6,2.9,1,4.4,1.5a52.7,52.7,0,0,0,8.6,2.5c3.2.8,6.4,1,9.6,1.6a41,41,0,0,0,9.9.9,68.3,68.3,0,0,1,10.1.4c3.2.4,6.4.5,9.6.8C84,62.6,80.8,65,79,68.5a19.1,19.1,0,0,0-1.5,11.8,48.3,48.3,0,0,0,1.8,6.2l2.1,6a40.5,40.5,0,0,1,1.5,6,23.8,23.8,0,0,0,1.2,5.9c1.6,3.6,4.9,6.1,8.2,8a80.4,80.4,0,0,0,11.4,4.7c4.1,1.4,8.2,2.8,12.2,4.6s7.4,4.1,11.1,6a13.2,13.2,0,0,0,6.7,1.5c2.3-.1,4.4-.6,6.7-.7.7,0,1.5-.3,1.2-1.3s-.5-.6-.8-1a6.9,6.9,0,0,1-1.1-1.3,31.7,31.7,0,0,1-4-5.6,33.9,33.9,0,0,1,6.5,4.1,48.6,48.6,0,0,0,6.8,4.3,18.6,18.6,0,0,0,8,2.4c2.7,0,5.3-.6,8-.8,5.7-.3,10.9,2.6,16.5,2.5a30.6,30.6,0,0,0,8.5-1.2c2.6-.7,5.1-1.7,7.7-2.4s5.6-1,7.7-2.9a3.1,3.1,0,0,0,.9-3.4c-.3-1.5-.9-3-1.3-4.5a41.1,41.1,0,0,0,8.1,4.1,16.8,16.8,0,0,0,8.9.5,29.3,29.3,0,0,0,8-2.8l7.9-3.9c2.5-1.2,5.1-2,7.6-3.2l8.1-4c2.7-1.5,5.4-2.7,8.1-4.1a74.8,74.8,0,0,0,7.6-4.8,41.7,41.7,0,0,0,6.7-5.9c2-2.2,3.7-4.6,5.9-6.6a59.8,59.8,0,0,0,6.5-5.8,15.9,15.9,0,0,0,4.1-7.5A14.9,14.9,0,0,0,292.8,69.2Z" style="fill:#fff"/><path d="M292.8,69.2a11,11,0,0,0-.2-1.8,6.8,6.8,0,0,1-.2-1.5,10.5,10.5,0,0,0-.7-4.3,9.3,9.3,0,0,0-2.6-3.3c-2.2-2.1-4.5-4.1-6.8-6.1a56.9,56.9,0,0,1-5.7-6.3c-2-2.4-3.8-5.2-6.2-7.3a38.2,38.2,0,0,0-7.9-5.1,41.4,41.4,0,0,0-4.3-2,23.8,23.8,0,0,0-5-1.5,18.4,18.4,0,0,0-4.7.1c-1.6.1-3.3.6-4.8.3.8-1.4,2.5-2.4,3.5-3.7s1.3-3,0-4.5-5.9-4.3-9.3-5.7a31.6,31.6,0,0,0-5.4-2l-5.7-1.1c-3.8-.7-7.2-2.3-10.9-3.2A56.5,56.5,0,0,0,203,8.4a25.9,25.9,0,0,1-5.6-.4A48.1,48.1,0,0,1,192,6.4l-5.1-1.8L182,2.7a31.6,31.6,0,0,0-10.6-1.5,19.8,19.8,0,0,0-9.8,2.4A17.7,17.7,0,0,0,156.9,7c-1.4,1.3-2.7,2.9-4.1,4.2a54,54,0,0,1,1.8-5.7c.5-1.4.8-3.7-1.5-3.2a38.8,38.8,0,0,1-11.8,1c-4.2-.3-8.2-.7-12.4-.1A37.1,37.1,0,0,0,117.7,7l-10.9,5.1c-3.5,1.6-7.2,3.2-10.3,5.6a44,44,0,0,0-8.1,8.6c-2.3,3-5.2,5.4-7.7,8.3a13.6,13.6,0,0,0-2.9,12.3,16.4,16.4,0,0,0,2.8,5.8,36.4,36.4,0,0,0,4.3,4.5c-6.2-.1-12.4-.5-18.6-1.1a104.6,104.6,0,0,1-18.5-2.8c-5.9-1.5-11.8-3.1-17.6-5.2-2.7-1-5.3-2.3-8-3.5l-8.5-3.9A66.1,66.1,0,0,1,6,36.3a32.1,32.1,0,0,0-3-2.1c-.9-.5-3.1-1.2-3,.7s1.6,1.9,2.4,2.5L6.3,40c2.6,1.6,5.3,3,7.9,4.4a140.6,140.6,0,0,0,17,6.9l3.7,1.4c1.4.6,2.9,1,4.4,1.5a52.7,52.7,0,0,0,8.6,2.5c3.2.8,6.4,1,9.6,1.6a41,41,0,0,0,9.9.9,68.3,68.3,0,0,1,10.1.4c3.2.4,6.4.5,9.6.8C84,62.6,80.8,65,79,68.5a19.1,19.1,0,0,0-1.5,11.8,48.3,48.3,0,0,0,1.8,6.2l2.1,6a40.5,40.5,0,0,1,1.5,6,23.8,23.8,0,0,0,1.2,5.9c1.6,3.6,4.9,6.1,8.2,8a80.4,80.4,0,0,0,11.4,4.7c4.1,1.4,8.2,2.8,12.2,4.6s7.4,4.1,11.1,6a13.2,13.2,0,0,0,6.7,1.5c2.3-.1,4.4-.6,6.7-.7.7,0,1.5-.3,1.2-1.3s-.5-.6-.8-1a6.9,6.9,0,0,1-1.1-1.3,31.7,31.7,0,0,1-4-5.6,33.9,33.9,0,0,1,6.5,4.1,48.6,48.6,0,0,0,6.8,4.3,18.6,18.6,0,0,0,8,2.4c2.7,0,5.3-.6,8-.8,5.7-.3,10.9,2.6,16.5,2.5a30.6,30.6,0,0,0,8.5-1.2c2.6-.7,5.1-1.7,7.7-2.4s5.6-1,7.7-2.9a3.1,3.1,0,0,0,.9-3.4c-.3-1.5-.9-3-1.3-4.5a41.1,41.1,0,0,0,8.1,4.1,16.8,16.8,0,0,0,8.9.5,29.3,29.3,0,0,0,8-2.8l7.9-3.9c2.5-1.2,5.1-2,7.6-3.2l8.1-4c2.7-1.5,5.4-2.7,8.1-4.1a74.8,74.8,0,0,0,7.6-4.8,41.7,41.7,0,0,0,6.7-5.9c2-2.2,3.7-4.6,5.9-6.6a59.8,59.8,0,0,0,6.5-5.8,15.9,15.9,0,0,0,4.1-7.5A14.9,14.9,0,0,0,292.8,69.2ZM289.9,63a4.2,4.2,0,0,1,.3,2.2v1.4l-6.4-.6C285.5,64.7,287.8,63.2,289.9,63Zm-2.4-3.3,1.4,1.5h.1a18.3,18.3,0,0,0-5.9,2.6,7.8,7.8,0,0,1-2.4,1.6,7.6,7.6,0,0,1-3.3-.3,33.8,33.8,0,0,1,5.5-4.5,20.8,20.8,0,0,1,3.2-1.2C286.8,59.3,287,59.3,287.5,59.7Zm-4.6-4.1,2.6,2.3a21,21,0,0,0-7.1,3.7l-3.3,2.5c-.6.4-.9.7-1.7.6l-1.9-.3c1.9-1.5,3.4-3.5,5.2-5.1A24.3,24.3,0,0,1,282.9,55.6Zm-2.7-2.4,1.2,1.1a28.8,28.8,0,0,0-8.2,5.7,19.9,19.9,0,0,1-3.5,3,6.1,6.1,0,0,1-1.8.9,14.5,14.5,0,0,1-2.9-.4c2.5-1.8,4.6-4.1,6.9-6a47.5,47.5,0,0,1,7.6-5A2.3,2.3,0,0,0,280.2,53.2Zm-3.5-3.7a11.5,11.5,0,0,0,1.4,1.7,54.5,54.5,0,0,0-10.4,7.4,21.6,21.6,0,0,1-5.3,3.6l-1.3.5a4.5,4.5,0,0,1-1.6-.1l-3.4-.5c3.6-2,6.5-4.9,9.9-7.3A30.7,30.7,0,0,1,276.7,49.5Zm-1.5-1.8.3.3c-4.9,1.3-9.3,4.1-13.2,7.2a43.3,43.3,0,0,1-6.1,4.1L252.7,61a2.5,2.5,0,0,1-1.5.2l-1.9-.3c4-2.4,7.8-5.2,11.7-7.8,2-1.4,4.2-2.5,6.3-3.7a21.6,21.6,0,0,1,3.4-1.7l3.7-1ZM272.3,44l.9,1.2c-5.4,1.4-10.4,4.5-15.1,7.6l-7.2,4.4a33.5,33.5,0,0,1-3.6,2.1l-1.5.8A2.7,2.7,0,0,1,244,60c1.7-1.2,3.2-2.6,4.9-4s3.3-2.7,5-4a53.4,53.4,0,0,1,11.4-6.5l3.3-1.1,1.7-.2A12.3,12.3,0,0,0,272.3,44Zm-1.5-1.9.2.2a23.3,23.3,0,0,0-7.3,2,72.9,72.9,0,0,0-7.4,3.7c-4.3,2.7-8.2,5.9-12.2,9l.2-.2-.4.3a.1.1,0,0,0,.1-.1l-1.8,1.3a12.8,12.8,0,0,1-2,1.1,11,11,0,0,1-1.8-.2l-2-.2a190.9,190.9,0,0,1,15.3-11.5,32.2,32.2,0,0,1,3.9-2.5l4.5-1.9,4.8-1.6,2.2-.7a16.6,16.6,0,0,0,2.2-.3Zm-3.6-3.3.3.2a34.7,34.7,0,0,0-5.5,1.6l-5.2,1.9a42.6,42.6,0,0,0-9,5.3c-3.1,2.1-6.3,4.1-9.3,6.4l-4.4,3.3a5.3,5.3,0,0,1-2,1.3,16.5,16.5,0,0,1-3.1-.4c2.8-2.5,5.2-5.2,8-7.6a66.3,66.3,0,0,1,8.7-6.3,41.4,41.4,0,0,1,9.6-4.3l5.2-1.6,2.4-.5a10.9,10.9,0,0,0,2.6-.5ZM258.4,35a5.9,5.9,0,0,1,2.3.1,10.1,10.1,0,0,1,2.3,1.2,71.7,71.7,0,0,0-9.1,2.4,46.7,46.7,0,0,0-8.2,3.7,82.9,82.9,0,0,0-15.3,11.1c-1.4,1.2-2.7,2.6-4.2,3.7l-.8.6a2.3,2.3,0,0,1-1.2.2h-2.5c2.7-2.2,5.2-4.5,7.8-6.7s5.1-4.2,7.7-6.1a60.8,60.8,0,0,1,16.2-8.8A28.3,28.3,0,0,1,258.4,35Zm-12.5-1.7a21,21,0,0,1,5.6-.8,8.8,8.8,0,0,1,2.8-.1,26.7,26.7,0,0,1,2.6.9c0,.1.1.1.2.1-6.3,1.1-12.1,4.4-17.4,7.7-2.9,1.8-5.4,3.8-8.2,5.7s-5.5,3.9-8,6l-4,3.4L218,57.4a4.3,4.3,0,0,1-2.5.3c2.2-2.4,4.2-5,6.3-7.5a51.3,51.3,0,0,1,7.2-6.8,96.8,96.8,0,0,1,8.2-6.1A36,36,0,0,1,245.9,33.3ZM213.6,55.6a7.7,7.7,0,0,1-1.8,1.8,6.3,6.3,0,0,1-2.4.2,57,57,0,0,0,5.6-6.4c3.8-4.5,7.3-9.1,12-12.6a49.9,49.9,0,0,1,7.3-4.6,65.4,65.4,0,0,0,7.1-4.5c-1.2,1.2-2.3,2.6-3.6,3.7l-4.4,3.6c-2.9,2.1-6,4-8.5,6.6s-5.1,5.5-7.6,8.2S214.9,54.3,213.6,55.6Zm32-32a42.3,42.3,0,0,1-5.1,4.4,50.2,50.2,0,0,1-5.6,3.8A94.1,94.1,0,0,0,223.6,39a66.2,66.2,0,0,0-9.9,9.9L209.4,54a23.9,23.9,0,0,1-2.3,2.2,5.3,5.3,0,0,1-1.4,1.2c-.4.3-1.1.1-1.7.2,2.6-2.7,4.6-5.7,7-8.5s4.8-4.6,6.9-7.2a56.1,56.1,0,0,1,16.2-13.7l5-2.8L242,24c.8-.4,1.9-.7,2.7-1.2Zm-2.4-2c-3.4,1.4-6.6,3.2-9.9,4.9a49.8,49.8,0,0,0-9.2,6.6,75.5,75.5,0,0,0-8,8,38.7,38.7,0,0,1-4.1,4c-1.4,1.3-2.6,2.7-3.9,4.1s-2.7,3.3-4.1,4.8-1.5,1.7-2.3,2.4a3.5,3.5,0,0,1-2.4,1.4,77.7,77.7,0,0,0,7.1-8.1l3.6-4.3c1.2-1.4,2.3-3,3.5-4.5a74.1,74.1,0,0,1,16.7-15.4,60,60,0,0,1,5.4-3.3,18.8,18.8,0,0,1,3-1.2c.9-.2,2.2,0,3-.5Zm-6.8-3.5,1,.5,1.7.7c-3.9.6-7.5,3.2-10.6,5.3a79.8,79.8,0,0,0-9.5,7.7,63.5,63.5,0,0,0-8.5,8.7c-2.5,3.1-5.2,5.9-7.7,9a42.3,42.3,0,0,1-4.4,5.1,12.6,12.6,0,0,1-2.4,2.2c-.7.5-2.3.2-3.2.2,6.6-4.9,11.6-11.6,16.9-17.8,2.7-3.2,5.1-6.6,8-9.6A51,51,0,0,1,227,22a28.6,28.6,0,0,1,5.9-3.3c1-.3,2-.2,3-.4Zm-6.5-1.7a3.8,3.8,0,0,1,1.5.1l1.8.4a17.4,17.4,0,0,0-5.3,2.6,45.9,45.9,0,0,0-5.1,3.5,67.2,67.2,0,0,0-9.1,8.6c-5.6,6.3-11,12.7-16.8,18.8a56.8,56.8,0,0,1-5.1,4.7,15.7,15.7,0,0,1-2.6,1.9,3.5,3.5,0,0,1-1.6.8h-1.9c3.4-2.4,6.2-5.7,9.1-8.8s5.9-6.4,8.7-9.7,5.2-6.7,8-10a48.6,48.6,0,0,1,9.4-8.7,31.3,31.3,0,0,1,5.8-3.6A12,12,0,0,1,229.9,16.4Zm-6.5-1.5c.5-.1,1.2.3,1.7.4l1,.2a28.2,28.2,0,0,0-5.3,3.1c-1.8,1.3-3.6,2.6-5.2,4a74.9,74.9,0,0,0-8.7,9.1l-4.2,5c-1.4,1.6-3,3.1-4.4,4.7l-9.2,9.7a36.3,36.3,0,0,1-4.9,4.7,11.2,11.2,0,0,1-2.8,1.6,2.7,2.7,0,0,1-1.4.5h-1.8c2.7-2.9,5.5-5.8,8.5-8.5s6.1-5.8,8.9-8.9c5.9-6.4,11.5-13.2,18-19,1.7-1.5,3.5-3.1,5.4-4.5a26.9,26.9,0,0,1,2.9-1.6A3.9,3.9,0,0,1,223.4,14.9Zm-7.3-1.3a5.1,5.1,0,0,1,2.2-.4,9.5,9.5,0,0,1,2.7.9c-4,1.8-7.4,4.9-10.7,7.7s-6.4,5.9-9.4,9-6,6.8-9.2,10.1-6.4,6-9.4,9.2l-5.2,5.5a8.6,8.6,0,0,1-2.5,2.2,9.1,9.1,0,0,1-3.3.2c4.6-3.1,8.4-7.4,11.9-11.8,2.1-2.6,4.4-5.2,6.6-7.8s4.3-5.5,6.6-8.2a81,81,0,0,1,15.1-14.1A12.9,12.9,0,0,1,216.1,13.6Zm-5.5-2.3,1.4.2,3,.7a18.4,18.4,0,0,0-5.2,3.1l-5.3,4.1a80.9,80.9,0,0,0-9.6,9.8c-5.7,6.8-11.2,14-17.4,20.4a54.9,54.9,0,0,1-5.5,5.3L169.1,57l-1.3.7a2.4,2.4,0,0,1-1.7.4,100.2,100.2,0,0,0,14.8-16.4c2.2-3,4.3-6.1,6.5-9.2a89.2,89.2,0,0,1,6.8-8.4,57.6,57.6,0,0,1,8.7-8.4h0l.2-.2H203a30.7,30.7,0,0,1,4.2-2.8l2.3-1.1A4.9,4.9,0,0,1,210.6,11.3Zm-6.9-.8,3.7.3a45.3,45.3,0,0,0-12.5,9.6c-1.6,1.7-3.3,3.4-4.9,5.2a72.6,72.6,0,0,0-4.9,6.1h.1c-3.7,4.9-7.1,10-11.1,14.6-1.9,2.3-3.8,4.6-6,6.8l-3.2,3-1.8,1.5a2.4,2.4,0,0,1-1.7.6,111.7,111.7,0,0,1,6.8-11.7c2.6-3.9,5.4-7.6,8.1-11.4a99.2,99.2,0,0,1,18.1-19.6,37.8,37.8,0,0,1,6.1-4.4A5.8,5.8,0,0,1,203.7,10.5Zm-7.4-.6,1.9.4h.3a72.6,72.6,0,0,0-9.6,7.8,103,103,0,0,0-8.6,8.9c-5.3,6.2-10.3,12.9-15,19.6a74.3,74.3,0,0,0-6.7,11.6h-2.4a54.4,54.4,0,0,1,5.5-11.4c2.3-3.8,4.8-7.4,7.4-11a109.1,109.1,0,0,1,17.1-19.4l5.6-4.5a15.3,15.3,0,0,1,3-1.9A1.7,1.7,0,0,1,196.3,9.9Zm-5.9-1.8a8.4,8.4,0,0,1,2.5.9h.3a39.8,39.8,0,0,0-5.1,3.8c-1.8,1.3-3.5,2.7-5.1,4.1a100.8,100.8,0,0,0-8.6,8.7,145.7,145.7,0,0,0-15.1,20,67.8,67.8,0,0,0-6,12.8h-3.2a21.7,21.7,0,0,0,1.2-3.6,29.2,29.2,0,0,1,1.4-3.8,52.6,52.6,0,0,1,3.6-7.1,70,70,0,0,1,4.5-6.6l4.8-6.4-.2.3c1.9-2.5,3.6-5.2,5.6-7.6a88,88,0,0,1,6.5-7.2,45.4,45.4,0,0,1,7.3-5.8,21.9,21.9,0,0,1,4-2.1A9.8,9.8,0,0,1,190.4,8.1ZM184.7,6l3.1,1.2h.2c-4.2,1.6-7.9,4.6-11.2,7.6a79.9,79.9,0,0,0-9.3,10l-8.3,11a56.6,56.6,0,0,0-4,5.6,64.8,64.8,0,0,0-3.4,6.4,45.1,45.1,0,0,0-2.9,7.2,9,9,0,0,1-1.3,3.2c-.5.8-2.3.5-3.3.5a107.5,107.5,0,0,1,5.2-12.1,93.6,93.6,0,0,1,7.3-11.2c2.6-3.7,5.3-7.5,8-11.1s5-7.2,8-10.5a34.2,34.2,0,0,1,5.3-4.7,16.9,16.9,0,0,1,3.2-1.9l1.7-.6C183.5,6.4,184.3,6.4,184.7,6Zm-7.2-2.2a9.3,9.3,0,0,1,2.2.4,13.4,13.4,0,0,1,2.6.9c-6.8,2-11.6,8.2-15.7,13.6h.1c-3.8,5-7.7,10-11.5,15.1a95.3,95.3,0,0,0-9.9,15.8c-1.4,3-2.4,6.2-3.6,9.2h-3.3c1.5-4.3,2.8-8.7,4.9-12.7a119.7,119.7,0,0,1,7.3-12c2.6-3.9,5.4-7.6,8.1-11.4s5.3-7.8,8.6-11.2a29.9,29.9,0,0,1,5.5-4.6L176,4.7C176.4,4.5,177,3.9,177.5,3.8Zm-8.6.3a6.1,6.1,0,0,1,1-.7,8.9,8.9,0,0,1,2.3,0h2.6a53.2,53.2,0,0,0-9.9,7.8c-3.1,3.5-5.8,7.4-8.6,11.1-5.3,7.2-10.9,14.3-15.2,22.2a58.5,58.5,0,0,0-3,6.8,56.7,56.7,0,0,0-2.4,7.3h-3.9c.7-2.2,1.1-4.5,1.8-6.8a46.7,46.7,0,0,1,2.3-6.6,83.9,83.9,0,0,1,6.6-12.6c2.6-3.8,5.5-7.3,8.4-10.9s6.1-7.5,9.5-10.9a46,46,0,0,1,5.3-4.6Zm-15.5,9.3a44.7,44.7,0,0,0,4.4-4.3,18.5,18.5,0,0,1,7.9-4.9,47.6,47.6,0,0,0-9.4,8.5l-8.6,9.9c-2.9,3.4-5.5,6.8-8.1,10.5a63.1,63.1,0,0,0-6.2,11.8A95,95,0,0,0,129,58.6h-3.8c1.2-3.6,2.1-7.3,3.5-10.9a113.3,113.3,0,0,1,4.9-11.3c3.7-7.1,9.1-13.1,14.9-18.5Zm-4.1-.8a9.4,9.4,0,0,1-1.2,2.2,10.5,10.5,0,0,1-1.7,1.9,64.4,64.4,0,0,0-8,8.5,84.6,84.6,0,0,0-6.7,9.8A98.8,98.8,0,0,0,127,45.5c-.9,2.2-1.7,4.3-2.4,6.6l-1.8,6.4h-3.2l.3-1.8a113.3,113.3,0,0,1,2.8-11.5,46,46,0,0,1,4.8-10.6,87.4,87.4,0,0,1,14.4-18.3c3.2-2.9,6.4-5.7,9.3-8.9A56.2,56.2,0,0,1,149.3,12.6Zm-2.5-6.5a5,5,0,0,1,2-.8l2.2-.4a61.4,61.4,0,0,1-4.2,4.7L141.9,14a86.8,86.8,0,0,0-9,9.2,119.1,119.1,0,0,0-7.2,10.3,48.5,48.5,0,0,0-5.5,11.2,79.3,79.3,0,0,0-3.3,13.6h-2a42.7,42.7,0,0,1,4.9-21.9c1.8-3.4,4.4-6.3,6.8-9.3s5.1-6.2,7.8-9.2l4.6-5.1a46.7,46.7,0,0,1,4.5-4.4A23.7,23.7,0,0,1,146.8,6.1Zm-5.4-.5h2.4c-3.4,2.4-6.1,5.7-9,8.7s-5.8,6.5-8.5,9.9-5.2,6.2-7.6,9.5a40.7,40.7,0,0,0-4.8,10.9,43.3,43.3,0,0,0-1.7,13.4h-.8c-.3-2-.8-4.1-1.2-6.1a19.5,19.5,0,0,1,.1-5.9,30.6,30.6,0,0,1,4.9-11.8c2.5-3.7,5.2-7.3,7.9-10.9a91,91,0,0,1,8.4-10.2,42.2,42.2,0,0,1,5.6-4.7c1-.7,2-1.2,2.9-1.9A4.2,4.2,0,0,1,141.4,5.6Zm-6.6-.4c.9-.4,2.8.1,3.8.2a52.4,52.4,0,0,0-9.7,7.9,105.6,105.6,0,0,0-8,9.7c-5,6.4-10.8,13-12.9,21-1.2,4.7-.6,9.3.6,13.9h-2.1a3,3,0,0,0-.4-1c-.4-1-.7-2-1-3a8,8,0,0,1-.4-3.1,27.4,27.4,0,0,1,.9-6.4A49.3,49.3,0,0,1,111,32.2a119.9,119.9,0,0,1,7-11.4,66.3,66.3,0,0,1,8.1-8.7c1.7-1.6,3.6-3.1,5.5-4.6A23.5,23.5,0,0,1,134.8,5.2Zm-8.6,1.2a12.1,12.1,0,0,1,3.1-.9l2.7-.3a78.5,78.5,0,0,0-17.5,17.5c-2.4,3.4-4.6,7-6.8,10.5a38,38,0,0,0-4.9,11.1,24.8,24.8,0,0,0-.8,6.6,12.7,12.7,0,0,0,.3,3.4l1.2,3.5h-2.2c-.6-2-1.4-3.9-1.8-5.9a19.5,19.5,0,0,1-.1-5.4,62.3,62.3,0,0,1,1.5-6.2,47.6,47.6,0,0,1,1.9-5.7,55.1,55.1,0,0,1,6.9-10.8c2.7-3.4,5.2-7,8.2-10.2,1.7-1.7,3.4-3.5,5.3-5.1A19.6,19.6,0,0,1,126.2,6.4Zm-14.4,6.7a9.2,9.2,0,0,1,2.4-1.9L117,9.9l4.2-2a76.6,76.6,0,0,0-7.8,8.3c-2.5,3.1-5.1,6.1-7.5,9.3s-4.7,6.2-6.1,9.8a50.1,50.1,0,0,0-3,10.7,22.5,22.5,0,0,0-.1,5.8,38.6,38.6,0,0,0,1.7,5.8H96.1a30.6,30.6,0,0,1-1.8-10.8,40.1,40.1,0,0,1,2.1-10.3c2.4-7,5.8-13.7,11.1-19.1A57,57,0,0,1,111.8,13.1Zm-10.3,5,2.1-1.8a11.9,11.9,0,0,1,2.5-1.3l2.3-1.1a53.3,53.3,0,0,0-11,15.2c-2.7,5.7-5.6,11.6-5.8,18.1a32.4,32.4,0,0,0,1.6,10.2H92c-1.3-2.7-2.8-5.5-3.3-8.4a21.6,21.6,0,0,1,.9-9.8A48.5,48.5,0,0,1,93.1,30a57,57,0,0,1,5-8.1A24.3,24.3,0,0,1,101.5,18.1ZM81.1,41.2a22.1,22.1,0,0,0-.1,8.5l-.5-.9a13.3,13.3,0,0,1-.8-7.9c.7-3,2.6-5,4.6-7.2A35.3,35.3,0,0,0,81.1,41.2Zm4.8,13a11.4,11.4,0,0,1-2.2-4.4,18.7,18.7,0,0,1-.3-9.4c.8-3,2.5-5.8,4-8.6a41.1,41.1,0,0,1,6.2-8.2,47.5,47.5,0,0,1,4-3.8A65.2,65.2,0,0,0,92.1,28a39.5,39.5,0,0,0-2.3,4.6c-.7,1.7-1.3,3.4-1.9,5.1a26.7,26.7,0,0,0-2,9.7,23.3,23.3,0,0,0,3,9.9A15.9,15.9,0,0,1,87.6,56ZM80.1,82.3a13.4,13.4,0,0,1-.7-2.7,17.5,17.5,0,0,1,1.9-11.2A19.5,19.5,0,0,1,85,64.5a22.7,22.7,0,0,1,5.1-3.4c-3.4,2.5-6.4,5.4-8.1,9.4A27.9,27.9,0,0,0,80.1,82.3Zm3.8,11.5c-.5-1.7-.6-3.5-1-5.3a22.8,22.8,0,0,1-1-5.2,26.5,26.5,0,0,1,1.2-10.1,17.3,17.3,0,0,1,5.8-7.8l3.8-2.9A8.6,8.6,0,0,1,94.9,61a6.6,6.6,0,0,1,2-.1,61.5,61.5,0,0,1-5.3,4.9,26.2,26.2,0,0,0-4.8,4.6c-2.8,3.8-3,8.9-3.1,13.5S84,90.5,83.9,93.8Zm5.9,14.3a12,12,0,0,1-3.4-3.7,8.5,8.5,0,0,1-.4-2.3L85.7,99c-.2-3.8.2-7.6.2-11.4s-.2-7.8.9-11.5,3.8-6,6.6-8.3a59.2,59.2,0,0,0,4.5-4.1l2.1-2.2c.4-.4.6-.6,1.1-.6H103c-2.5,2.2-4.1,5.1-6.4,7.5A42.6,42.6,0,0,0,92.8,72a15,15,0,0,0-2.9,4.2c-1.7,3.4-1.8,6.9-1.8,10.6s.1,7.3.1,11,.6,7.9,2.7,11.2A4.8,4.8,0,0,1,89.8,108.1Zm7.5,4.3a2,2,0,0,1-.9-.5l-.7-.6a17.9,17.9,0,0,1-2.5-2.2,11.8,11.8,0,0,1-2.4-4.9c-.9-4.3-.6-8.7-.7-13s-.6-8.9,1-12.8a14.7,14.7,0,0,1,3.6-5.2c1.5-1.5,3.2-2.7,4.7-4.3s2.9-3.7,4.6-5.3a7.9,7.9,0,0,1,2.8-2.1,10.9,10.9,0,0,1,1.8.1h1.8a23,23,0,0,0-4.1,3.5,31.9,31.9,0,0,0-3.5,4.7c-2.1,3.2-5.3,5.3-7,8.8a21.3,21.3,0,0,0-2.5,11.3,78.9,78.9,0,0,0,1.4,11.9c1.1,4.3,2.9,8.7,6,11.9Zm9.6,3.6-.9-.3-.4-.5a4.1,4.1,0,0,0-1.1-.7,15.5,15.5,0,0,1-2.7-2.4,17.3,17.3,0,0,1-3.5-5.4c-1.9-4.3-2.4-8.9-2.9-13.5a28.2,28.2,0,0,1-.1-7.1,19.9,19.9,0,0,1,2.4-6.7,22.2,22.2,0,0,1,4.4-5.3c1.5-1.5,2.7-3.3,4.1-5a22,22,0,0,1,5.2-4.9c1.1-.8,2.2-1.2,3.3-1.9l1.5-.8a10.8,10.8,0,0,1,1.8,0,80.3,80.3,0,0,0-9.7,8.7c-1.5,1.6-2.8,3.4-4.2,5a26.1,26.1,0,0,0-3.6,5.3A26.9,26.9,0,0,0,98,93.3a26,26,0,0,0,3.3,12.8,27.5,27.5,0,0,0,4.3,6c1.5,1.6,2.9,3.4,4.5,5Zm7.8,2.8a27,27,0,0,1-5-4.6,47.5,47.5,0,0,1-4.2-4.9,26.2,26.2,0,0,1-5.4-12.7A28.2,28.2,0,0,1,102,82.8a18.2,18.2,0,0,1,3.9-5.6l4.5-5.4c1.7-1.8,3.6-3.4,5.4-5a43.2,43.2,0,0,1,6.3-5,58.7,58.7,0,0,0-4.1,4.6,36.8,36.8,0,0,0-3,5q-2.7,5.7-5.7,11.4c-1.8,3.7-3.5,7.5-3.7,11.6a26.6,26.6,0,0,0,2.3,12.2,59.8,59.8,0,0,0,3.4,6.1c1.3,2.1,2.4,4.2,3.6,6.3Zm4.6,2.3-1.6-.8a4.8,4.8,0,0,1-.9-1.4l-1.6-2.9-3.5-6.1a25.5,25.5,0,0,1-4.2-12.5,20.6,20.6,0,0,1,.8-6.6,33.7,33.7,0,0,1,2.8-6.1l6.3-12.2a24.7,24.7,0,0,1,4-6.1l2.5-2.7c.7-.7,1.5-2,2.6-2a54.2,54.2,0,0,0-6,11.1,48,48,0,0,0-2.4,6.3c-.6,2-1,4.1-1.6,6.2-1.2,4.2-2.6,8.3-2.9,12.7a26.6,26.6,0,0,0,.3,6.3,20.8,20.8,0,0,0,2.1,5.9,56.7,56.7,0,0,0,3.6,6.3c1.3,2.2,2.1,4.6,3.5,6.7Zm11.4,5.8a17.9,17.9,0,0,1-3.2-1.3,7.2,7.2,0,0,1-2.5-2.7,64.9,64.9,0,0,1-3.3-6.4c-2.3-4.2-5.3-8.3-5.8-13.2s.7-9.8,2.3-14.6,2.4-9.5,4.4-14a76.9,76.9,0,0,1,3.8-7.6c.6-1.1,1.2-2.2,1.9-3.3s1.1-2,2.1-2c-1.7,4.3-3.5,8.6-5,13s-2.5,9.4-3.6,14.2-1.9,8.6-1.7,13a29.3,29.3,0,0,0,4.2,13.1c2.5,4.3,5.4,8.7,9.2,12A8.8,8.8,0,0,1,130.7,126.9ZM120.3,97.8h0v0Zm18.3,28.7-1.9.3a1.1,1.1,0,0,1-1.2-.3l-2.7-2.5a38,38,0,0,1-4.2-5.5,48.3,48.3,0,0,1-3.7-6.2,25.4,25.4,0,0,1-2.1-6.6c-1-4.8.1-9.6,1.2-14.2a141.9,141.9,0,0,1,3.5-14.3c1.6-5.2,3.9-10.2,5.7-15.4h4.5A55.7,55.7,0,0,0,133.6,73c-.4,2-.6,4-.9,6s-.9,4-1.3,6.1a48.8,48.8,0,0,0-1.3,12.1,69,69,0,0,0,.6,12,60.1,60.1,0,0,0,1.4,6.1,33.7,33.7,0,0,0,2.5,5.9A33.5,33.5,0,0,0,138.6,126.5Zm-.5-8.1a10.6,10.6,0,0,0-3.4-1.2,46.4,46.4,0,0,1-2.5-10.4c-.1-1.9,0-3.9,0-5.9s0-3.7,0-5.6a57.3,57.3,0,0,1,1.7-11c.9-3.6,1.4-7.3,2.1-10.9s2.8-7.8,4.4-11.7h2.3c-1.2,4.5-2,9.1-3.2,13.6-.6,2.2-1.4,4.2-2,6.4a35.5,35.5,0,0,0-1,6.4v-.3c-.3,3-.7,5.9-1,8.8a46.4,46.4,0,0,0-.3,8.3,32.3,32.3,0,0,0,6.1,15.5Zm9.6,6.4a26.8,26.8,0,0,1-3-2.8,28.4,28.4,0,0,1-4.7-7.3,32.3,32.3,0,0,1-2.5-8,33.2,33.2,0,0,1,.2-8.9h0c.3-3,.7-6,1-9a47.5,47.5,0,0,1,1.9-9.1c2-5.9,3.1-12.1,4.6-18.1h2.9a1.7,1.7,0,0,1-.1.7,34.2,34.2,0,0,1-.9,6.3c-.6,2.2-1.2,4.4-1.6,6.7-.7,4.4-1,8.8-2.3,13s-2.8,8.7-2.6,13.1a34,34,0,0,0,2.8,12.6c2.1,4.5,4.2,9.1,7.8,12.7A19.5,19.5,0,0,1,147.7,124.8Zm10.1,3.3a8.9,8.9,0,0,1-2.3-.1,5.5,5.5,0,0,1-1.9-1.5,32.6,32.6,0,0,1-3.1-3.3,43.9,43.9,0,0,1-4.8-8.8h.1c-.1-.1-.1-.1-.1-.2h0a32.2,32.2,0,0,1-2.7-10.1,23.5,23.5,0,0,1-.1-5.3,28,28,0,0,1,1.2-5c.9-3.4,2.2-6.7,2.8-10.2s.9-7.1,1.7-10.6c.4-1.9,1-3.8,1.4-5.7s.5-4,.6-6h3.3a122.2,122.2,0,0,1-4,28.2c-1,4.5-2.2,9-2.3,13.7a24.6,24.6,0,0,0,.6,6.6,29.8,29.8,0,0,0,2.5,6.2,42.6,42.6,0,0,0,9.3,11.8Zm6.1-.7h-1c-.5.1-.5.1-.9-.2a3.5,3.5,0,0,1-1.1-1l-2.7-2.5a28.8,28.8,0,0,1-4.1-5.6c-2.4-3.8-4.2-7.8-4.3-12.3s1.1-9.6,2.2-14.3,2.4-9.5,3.2-14.4a65.7,65.7,0,0,0,1.2-16h1.8c.1,2.3-.1,4.7-.1,7s0,4.8-.2,7.1a78.7,78.7,0,0,1-2.6,14.5c-.5,2.1-1,4.3-1.3,6.4a31.6,31.6,0,0,0-.6,6.9,35,35,0,0,0,3.9,13,29.4,29.4,0,0,0,4.2,6.4,30.2,30.2,0,0,0,5.2,4.9Zm11,1.2-3.4-.7-1.6-.5a11.8,11.8,0,0,1-1.9-1.1,21.8,21.8,0,0,1-5.3-5.2,29.9,29.9,0,0,1-4-6,57.4,57.4,0,0,1-2.6-6.9c-1.5-4.8-.8-9.7.3-14.6s2.7-9.8,3.4-14.9a80.9,80.9,0,0,0,.7-8.6c0-1.6,0-3.1.1-4.7a30.5,30.5,0,0,0,.1-4.3l3.6-.2a53,53,0,0,1-.1,6.9c-.3,2.3-.7,4.6-1.1,6.9s-.9,4.5-1.2,6.8-.6,4.8-.9,7.3a38.7,38.7,0,0,0,.1,14,43.9,43.9,0,0,0,4.7,13.3,69,69,0,0,0,4.2,6.3,52,52,0,0,0,5.1,6.3Zm4.4,1a2.3,2.3,0,0,1-1.5-.7l-1.3-1.2A21.6,21.6,0,0,1,174,125l-4.3-5.9a46,46,0,0,1-6.1-13.1,36.7,36.7,0,0,1-.9-15.1c.6-4.7,1.6-9.5,2.5-14.2.5-2.6,1-5.3,1.4-8a43.9,43.9,0,0,0,.3-8.1l2.9-.2a45.2,45.2,0,0,1-.4,12.2c-.7,4.1-1.7,8.1-1.9,12.2s-.9,7.9-.7,11.9a48.2,48.2,0,0,0,2.3,11.9,43.2,43.2,0,0,0,6.6,12.1c0-.1-.1-.1-.1-.2l1.5,1.9a38.7,38.7,0,0,0,6.8,7.2A23.6,23.6,0,0,1,179.3,129.6Zm7.1-.3c-.8.1-2.2-1.4-2.7-1.9l-2.6-2.7a63.6,63.6,0,0,1-4.6-5.7,36.8,36.8,0,0,1-6.4-13,41.6,41.6,0,0,1-1.3-14.5A141.7,141.7,0,0,1,171.3,77a79.1,79.1,0,0,0,1.3-8.5,56.2,56.2,0,0,0-.3-8.2h4a67.7,67.7,0,0,1,0,7.8,31.1,31.1,0,0,1-1.1,6.8,51,51,0,0,0-2.6,13.9c-.3,9.6,3.6,19.5,8.7,27.5,2.9,4.3,6.2,8.6,10.5,11.6A35.8,35.8,0,0,1,186.4,129.3Zm9.4-2.7-1.7.5a1.7,1.7,0,0,1-1.3-.5l-2.7-2.1a43.7,43.7,0,0,1-4.9-5.6,64.6,64.6,0,0,1-7.5-13A42.6,42.6,0,0,1,174.3,91a43.1,43.1,0,0,1,2.5-14.6,41.8,41.8,0,0,0,1.7-7.8,38.2,38.2,0,0,0,.4-8.3h2.6a63.2,63.2,0,0,1-1.2,14.4c-.9,4.6-1.9,9.1-1.7,13.8a52.1,52.1,0,0,0,2.4,14.1,32.6,32.6,0,0,0,2.5,6.1c1.1,1.9,2.2,3.8,3.4,5.7a35.5,35.5,0,0,0,2.3,3.1,25.2,25.2,0,0,0,2.4,3.3,45.6,45.6,0,0,0,5.3,5.5Zm6.5-1.8a20.1,20.1,0,0,1-3.5,1c-.7-.8-1.7-1.5-2.5-2.3a32,32,0,0,1-2.5-2.7c-1.6-1.8-2.9-3.8-4.4-5.7h0a48.7,48.7,0,0,1-2.7-4.5c-.9-1.6-1.9-3-2.7-4.7a38.5,38.5,0,0,1-3.1-10.5,45.1,45.1,0,0,1-.3-11.6c.6-3.6,1.5-7,2.4-10.5a47,47,0,0,0,1-13h3.1a94.5,94.5,0,0,1,.1,11.9c-.3,3.9-1.2,7.8-1.5,11.7-.8,7.8,1,15.6,4,22.8a48.2,48.2,0,0,0,6.3,11c2,2.5,4.5,5.2,7.5,6.4Zm-2.9-5.9a33.9,33.9,0,0,1-4.1-5.1,62.9,62.9,0,0,1-5.7-12,46.1,46.1,0,0,1-1.6-6.4,54.3,54.3,0,0,1-.9-6.9c0-4.4,1.5-8.6,2.1-12.9a61.5,61.5,0,0,0,.6-7.4c.1-2.7-.2-5.2-.3-7.9H191c.2,1.1.3,2.3.4,3.4s.4,2.3.5,3.5.1,4.4,0,6.6c-.1,4.3-.9,8.6-.8,12.9a38.9,38.9,0,0,0,2.7,12.6c1.4,3.9,2.7,8.1,4.9,11.6s4.8,7.3,5.6,11.6A11.8,11.8,0,0,1,199.4,118.9Zm13.1.1a37,37,0,0,1-5.9-3.1c-1.6-1.1-3.6-2-4.8-3.7a42.6,42.6,0,0,1-5.7-11.5c-1.5-4.1-2.9-8.2-3.2-12.6s.5-8.6.7-12.9a48.2,48.2,0,0,0,0-7.6,20.9,20.9,0,0,0-.4-3.5c-.2-1.2-.2-2.5-.5-3.7h3.1a107,107,0,0,1,.6,12.7c0,4.3-.3,8.7.2,13.1a75.4,75.4,0,0,0,2.8,12.5,54.5,54.5,0,0,0,5,11.9,27.6,27.6,0,0,0,9.4,8.9Zm11,.6a18.6,18.6,0,0,1-3.4.6,6.4,6.4,0,0,1-3.5-1,24,24,0,0,1-5.6-3.8,20.1,20.1,0,0,1-4.5-4.7,33.2,33.2,0,0,1-2.9-6,85.1,85.1,0,0,1-4.1-13.9c-1-4.8-.9-9.6-.9-14.5s.5-10.8-.6-15.9h1.7a32.7,32.7,0,0,1,.4,5.4l.6,5.8c.3,3.9.2,7.8.5,11.7.5,7.5,1.8,15.3,5.8,21.7a31.4,31.4,0,0,0,9,8.8h-.2c3.1,2.1,6.1,4.3,9.8,5.1Zm5.7-2.4c-.6.3-.8.5-1.5.4l-1.3-.3a13.5,13.5,0,0,1-3.4-1.1,42.1,42.1,0,0,1-5.7-3.6,38.4,38.4,0,0,1-5.4-4.4,23.6,23.6,0,0,1-4-5.4c-4.5-8-4.6-17.6-4.8-26.5-.1-2.7-.2-5.4-.5-8s-.2-5.3-.6-7.9h2.6c.5,2.2,1.2,4.3,1.6,6.6s.6,4.4,1,6.5.4,4.7.6,6.9l.9,6.5a46.2,46.2,0,0,0,1.1,6.3,54,54,0,0,0,1.8,5.7,25.6,25.6,0,0,0,7,10.1,38.7,38.7,0,0,0,11.5,7.7Zm2.9-1.4a26,26,0,0,1-7.4-3.8h0a37.8,37.8,0,0,1-7.9-7c-2.3-2.9-3.5-6.3-4.6-9.8-2.3-7.3-1.6-15-2.7-22.4a77,77,0,0,0-2.6-12.3h1.3a46,46,0,0,1,3.6,11.6c.7,4.1.9,8.3,1.6,12.4a79.7,79.7,0,0,0,3.4,11.8,28.9,28.9,0,0,0,6.3,10.5c3.1,3.3,6.9,5.7,10.7,8Zm5.2-2.5-1.4.6c-.5.1-.4.1-.8-.1l-.7-.4a29,29,0,0,1-2.9-1.9,42.6,42.6,0,0,1-4.9-3.4,28.3,28.3,0,0,1-7.1-9.7,54,54,0,0,1-3.4-11.7c-.9-4.1-1-8.3-1.5-12.4s-1.4-9.5-3.7-13.7h4a50,50,0,0,1,2.8,11.4c.4,4,.5,8,1.3,12,1.6,7.8,4.8,14.8,10.6,20.4,1.3,1.3,2.8,2.6,4.3,3.9a40.9,40.9,0,0,0,5.3,4A6.6,6.6,0,0,0,237.3,113.3Zm3.9-1.6c-.5-.6-1.6-.9-2.2-1.4l-2.4-1.9-4.5-3.7a33.5,33.5,0,0,1-7.1-8.8c-3.8-6.8-4.9-14.4-5.2-22.1a39.9,39.9,0,0,0-2.5-12.9h3.1c1.1,5,1.6,10.1,2.6,15.1a.4.4,0,0,1-.1-.3c1.3,6.9,2.9,14.1,6.2,20.3a34.2,34.2,0,0,0,6.3,7.9l4,3.4c1.4,1,2.8,2.2,4.3,3.2Zm6.3-2.9-1.5.7a.9.9,0,0,1-1,0,21.5,21.5,0,0,1-2.4-1.8l-5.2-4.1a31.9,31.9,0,0,1-7.2-9.2,41.8,41.8,0,0,1-2.8-8.2,60.1,60.1,0,0,1-1.9-8.4c-.9-5.5-1.3-11.2-2.7-16.7l2.4.2a25.6,25.6,0,0,1,.5,2.7v-.3c1.2,6.7,1.7,13.6,4,20.1a53.4,53.4,0,0,0,4,9.2,64.4,64.4,0,0,0,5.7,8c2.6,2.9,6,5.1,9.3,7.2Zm6.1-3.1-1.5.7c-.4.2-1.1.8-1.5.8s-2.2-1.2-2.8-1.6h.2a34.4,34.4,0,0,1-7.5-6.2,57.5,57.5,0,0,1-5.6-8.3,48.2,48.2,0,0,1-3.4-9.2c-.9-3-1.4-6.3-2-9.4s-1-7.5-1.9-11.2H229c.6,0,.8,0,1.1.4a8.8,8.8,0,0,1,1.2,2.6c.6,1.7,1.1,3.4,1.6,5.1.9,3.7,1.8,7.4,2.8,11.1,1.7,6.7,3.7,13.9,9.2,18.5a29.9,29.9,0,0,0,9.6,6Zm6-3a17.5,17.5,0,0,1-2.4,1.1,3.7,3.7,0,0,1-2.5-.3,13.1,13.1,0,0,1-4.5-2.4c-2.8-2.1-5.7-4.1-7.6-7.1a28.1,28.1,0,0,1-3.8-9.7c-.8-3.6-1.5-7.3-2.4-11s-1.8-8-3.7-11.5a8.7,8.7,0,0,1,2.3.1c.6.3,1.1,1.7,1.4,2.3s1.4,3,2,4.6c1.2,3.2,2,6.6,2.9,9.9a32.7,32.7,0,0,0,3.6,9.3c1.7,2.8,4.2,5.1,6.4,7.4a28.8,28.8,0,0,0,8.9,7Zm3.8-2.1-.8.5a.9.9,0,0,1-1.1.1l-2-1a21.4,21.4,0,0,1-3.9-2.8,85.7,85.7,0,0,1-6.6-6.9,26.6,26.6,0,0,1-4.6-8.2c-1-3.2-1.6-6.5-2.5-9.7A42.8,42.8,0,0,0,238,62.3c.6,0,1.8-.1,2.2.3a5.7,5.7,0,0,1,1.2,1.8,21.3,21.3,0,0,1,2.3,4.2c1.2,2.9,1.8,6,2.8,9A35.3,35.3,0,0,0,257,93.4c1.3,1.1,2.7,2.1,4,3.3a29.2,29.2,0,0,0,4,2.9Zm3.1-2.1a20.4,20.4,0,0,1-4.5-3.2L258,92a27.7,27.7,0,0,1-6.7-8.5,46.4,46.4,0,0,1-3.8-10.6,27.9,27.9,0,0,0-4.3-10h1.1a1.2,1.2,0,0,1,1.1.5l1.5,2.2a29.1,29.1,0,0,1,2.6,4.5c1.7,3.5,2.3,7.4,3.6,10.9a22.3,22.3,0,0,0,2.6,5.1,24.6,24.6,0,0,0,3.8,4.1,50.6,50.6,0,0,0,9.3,6.6Zm5.3-4.1-1.6,1.4c-5.7-3.2-12.1-7.5-14.6-13.8-1.3-3.1-1.8-6.4-2.7-9.6a25.9,25.9,0,0,0-4.7-9,13.7,13.7,0,0,1,2.9.2c.7.2.9.6,1.4,1.2a23,23,0,0,1,2.5,4.3c1.5,3.2,1.9,6.8,3.3,10.1a28.2,28.2,0,0,0,5.5,8.5,41,41,0,0,0,8.6,6.2Zm3.6-3.6-1.8,1.9a43.9,43.9,0,0,1-7.6-5.1,23.4,23.4,0,0,1-5-7.1c-1.3-2.7-1.7-5.4-2.4-8.2a23.5,23.5,0,0,0-3.5-8.1c.5,0,1.3,0,1.6.3a7.6,7.6,0,0,1,1.2,1.9c.7,1.3,1.2,2.6,1.8,4a48.3,48.3,0,0,0,3.9,7.9,24.7,24.7,0,0,0,5.3,6.3,73.6,73.6,0,0,0,7,5.5Zm1.6-2.1a59.3,59.3,0,0,1-5.6-4.3,24.6,24.6,0,0,1-5.2-5.5,41.7,41.7,0,0,1-3.3-6.7c-1-2.4-1.6-4.9-3-7.1,1.2.3,2.4.3,3.3,1.1a15.5,15.5,0,0,1,2.4,2.7,52.3,52.3,0,0,1,4.1,6.3,31.7,31.7,0,0,0,3.9,5.9c1.7,1.8,3.7,3.5,5.6,5.2Zm3.4-3.5c-3-2.7-6-5.2-8-8.7s-3.6-7.1-5.9-10.3l3.1.4a1.7,1.7,0,0,1,1.3.7l.9,1.2c1.2,1.9,2.3,3.8,3.4,5.7a48.6,48.6,0,0,0,3.5,5.3,24.2,24.2,0,0,0,4.2,3.6A25.2,25.2,0,0,0,280.4,85.2Zm5.7-5.1a16.2,16.2,0,0,1-1.9,1.8,17,17,0,0,1-6-6.2c-1.7-2.8-3.1-5.8-4.8-8.6a3.1,3.1,0,0,1,2,.7l1.5,1.5a25.6,25.6,0,0,1,3,3.7,19.8,19.8,0,0,0,6.8,6.4Zm1.8-2.1a16.5,16.5,0,0,1-5.3-4.5c-1.4-2-2.6-4-4.2-5.9,1.1.1,2.5-.1,3.5.6a15.5,15.5,0,0,1,2.7,2.4c1.6,1.8,2.9,3.3,5.2,4.1A27.9,27.9,0,0,1,287.9,78Zm2.4-5c-2.4-.9-3.8-3.1-5.5-4.8l5.7.4A10.9,10.9,0,0,1,290.3,73Z" style="fill:#c5a45a"/><path d="M177.2,122.6v-.2h0Z" style="fill:#c5a45a"/><path d="M196.1,117.8h0Z" style="fill:#c5a45a"/><path d="M223.5,39.1h.2C223.6,39,223.5,39,223.5,39.1Z" style="fill:#c5a45a"/><path d="M145.7,114.4Z" style="fill:#c5a45a"/></svg>
