<svg xmlns="http://www.w3.org/2000/svg" width="337" height="109" viewBox="0 0 337 109"><title>list4-small</title><path d="M332.3,85.6l-2-4.2a79.7,79.7,0,0,1-4-9c-1-3.1-2.2-6.2-3.3-9.3a60.2,60.2,0,0,0-4.2-8.9,49.1,49.1,0,0,0-12.1-14.7,23.8,23.8,0,0,0-8-4.7c-3-.9-6.3-.1-9.2,1.1a38.1,38.1,0,0,0-8,4.9,76.7,76.7,0,0,0-7.5,6.4l-3.3,3.4a62.2,62.2,0,0,1,11.1-11.8c2.1-1.6,4.2-3.3,6.3-4.8a36.2,36.2,0,0,1,3.2-2.2c.8-.6,2.2-1.3,2.6-2.3s-.5-1.6-1.2-2.1l-4-2.1a48.9,48.9,0,0,0-7.5-3c-4.9-1.7-9.9-3.4-14.9-4.9s-12.1-3.5-18.1-5a92.8,92.8,0,0,0-13.7-2.9,25.8,25.8,0,0,0-6.8-.1,15.9,15.9,0,0,0-6,2.9,142.6,142.6,0,0,0-20.5,18.3c-3.6,3.8-6.9,7.8-10.3,11.8,2.6-4.7,5.1-9.3,8-13.7s5.8-8.7,8.9-12.9l2.2-2.9c.5-.8,1.4-1.8,1.3-2.8s-1.4-1.4-2.3-1.6l-4-1c-5.2-1.3-10.4-2.6-15.7-3.6a138.1,138.1,0,0,0-15.7-2.3,142,142,0,0,0-16-.3c-5.4.2-10.8,0-16.2.2a24.8,24.8,0,0,0-3.8.2,4.6,4.6,0,0,0-2.8,1.7,63.5,63.5,0,0,0-4.7,6.5,90.4,90.4,0,0,0-7.9,15.5,138.8,138.8,0,0,0-5.8,16.8A96.6,96.6,0,0,1,118.1,28a105.1,105.1,0,0,1,3.7-13.3c.7-2.3,1.6-4.4,2.4-6.7s2.7-4.5.1-5.1-4.4-.1-6.5.1-4.6.8-6.9,1.2A126.1,126.1,0,0,0,97.3,7a85,85,0,0,0-12.8,4.6,56.9,56.9,0,0,0-11.1,6.8,94.5,94.5,0,0,0-9.8,9.2,53.8,53.8,0,0,0-4.8,5.9,41.7,41.7,0,0,0-3.5,6.6,55.3,55.3,0,0,0-2.4,7.2,20.5,20.5,0,0,0-.7,7.4c-7.3,0-14.7.1-22-.3S15.3,53.3,7.8,53c-1.4,0-3.5-.7-4.8.1a7.4,7.4,0,0,0-1.3,1.2A14.2,14.2,0,0,0,.4,55.5c-2.3,2.8,5.3,3.1,6.6,3.3a200.2,200.2,0,0,0,21.9,2l11.9-.2,12.1-.5a30.6,30.6,0,0,0,1.2,15,29.9,29.9,0,0,0,8.3,12.2,39.3,39.3,0,0,0,12.8,7.5,99.2,99.2,0,0,0,14,3.6c4.7,1,9.5,2.3,14.3,3.3S114,104,119.4,105s10.3,1.8,15.5,2.3c1.4.1,5.1.5,4-2-.4-1-1-1.8-1.4-2.8s-.9-2.5-1.4-3.7c-2-5.5-2.6-11.4-3.6-17.1s-1.8-11.9-2.4-17.8a128.5,128.5,0,0,0,4.1,14.7c1.7,4.7,3.7,9.2,5.9,13.8s4.3,8.8,7.7,12.4a17.9,17.9,0,0,0,2.5,2.3c1,.7,1.8.6,3,.7h7.8c10.3-.1,20.6-.9,30.9-1.2,2.4-.1,4.8-.2,7.3-.1s5,.3,7.6.3c1,0,1.7-.6,1.4-1.6a18,18,0,0,0-1.7-3.4l-3.3-6a74.3,74.3,0,0,1-6.1-15.2,58.3,58.3,0,0,1-2.6-16.1c2.1,4.1,4.1,8.1,6.6,12s5.2,8,8.1,11.9a86.5,86.5,0,0,0,9.1,10.1l5.2,4.7c1.6,1.3,3.2,2.8,5.3,3.1a153.4,153.4,0,0,0,28.7,1.4,128.2,128.2,0,0,0,13.9-1.3l3.3-.5c.8-.1,2.3-.1,2.5-1.1s-.9-1.6-1.4-2.2a32.8,32.8,0,0,1-2-3.1A118.4,118.4,0,0,1,267,85.6c-.9-2.4-1.8-4.9-2.5-7.3s-1-4.9-1.5-7.3q3.6,8.9,7.5,17.4a32.7,32.7,0,0,0,4.6,7.9c1.9,2.3,3.5,4.9,5.6,6.9s2.8,1,4.3.8a24.1,24.1,0,0,0,4.8-1.2,57.2,57.2,0,0,0,8.9-3.6,86,86,0,0,0,8.4-4.7,43.1,43.1,0,0,1,8.3-4.2,31.9,31.9,0,0,1,9.7-1.7,17.7,17.7,0,0,1,4.6.7,16,16,0,0,0,2.1.5,1.1,1.1,0,0,0,.8-.3l.6-.5C334.3,88.1,332.8,86.4,332.3,85.6Z" style="fill:#fff"/><path d="M281.3,65.1h0Z" style="fill:#c5a45a"/><path d="M260,56.2Z" style="fill:#c5a45a"/><path d="M260,56.2Z" style="fill:#c5a45a"/><path d="M332.3,85.6l-2-4.2a79.7,79.7,0,0,1-4-9c-1-3.1-2.2-6.2-3.3-9.3a60.2,60.2,0,0,0-4.2-8.9,49.1,49.1,0,0,0-12.1-14.7,23.8,23.8,0,0,0-8-4.7c-3-.9-6.3-.1-9.2,1.1a38.1,38.1,0,0,0-8,4.9,76.7,76.7,0,0,0-7.5,6.4l-3.3,3.4a62.2,62.2,0,0,1,11.1-11.8c2.1-1.6,4.2-3.3,6.3-4.8a36.2,36.2,0,0,1,3.2-2.2c.8-.6,2.2-1.3,2.6-2.3s-.5-1.6-1.2-2.1l-4-2.1a48.9,48.9,0,0,0-7.5-3c-4.9-1.7-9.9-3.4-14.9-4.9s-12.1-3.5-18.1-5a92.8,92.8,0,0,0-13.7-2.9,25.8,25.8,0,0,0-6.8-.1,15.9,15.9,0,0,0-6,2.9,142.6,142.6,0,0,0-20.5,18.3c-3.6,3.8-6.9,7.8-10.3,11.8,2.6-4.7,5.1-9.3,8-13.7s5.8-8.7,8.9-12.9l2.2-2.9c.5-.8,1.4-1.8,1.3-2.8s-1.4-1.4-2.3-1.6l-4-1c-5.2-1.3-10.4-2.6-15.7-3.6a138.1,138.1,0,0,0-15.7-2.3,142,142,0,0,0-16-.3c-5.4.2-10.8,0-16.2.2a24.8,24.8,0,0,0-3.8.2,4.6,4.6,0,0,0-2.8,1.7,63.5,63.5,0,0,0-4.7,6.5,90.4,90.4,0,0,0-7.9,15.5,138.8,138.8,0,0,0-5.8,16.8A96.6,96.6,0,0,1,118.1,28a105.1,105.1,0,0,1,3.7-13.3c.7-2.3,1.6-4.4,2.4-6.7s2.7-4.5.1-5.1-4.4-.1-6.5.1-4.6.8-6.9,1.2A126.1,126.1,0,0,0,97.3,7a85,85,0,0,0-12.8,4.6,56.9,56.9,0,0,0-11.1,6.8,94.5,94.5,0,0,0-9.8,9.2,53.8,53.8,0,0,0-4.8,5.9,41.7,41.7,0,0,0-3.5,6.6,55.3,55.3,0,0,0-2.4,7.2,20.5,20.5,0,0,0-.7,7.4c-7.3,0-14.7.1-22-.3S15.3,53.3,7.8,53c-1.4,0-3.5-.7-4.8.1a7.4,7.4,0,0,0-1.3,1.2A14.2,14.2,0,0,0,.4,55.5c-2.3,2.8,5.3,3.1,6.6,3.3a200.2,200.2,0,0,0,21.9,2l11.9-.2,12.1-.5a30.6,30.6,0,0,0,1.2,15,29.9,29.9,0,0,0,8.3,12.2,39.3,39.3,0,0,0,12.8,7.5,99.2,99.2,0,0,0,14,3.6c4.7,1,9.5,2.3,14.3,3.3S114,104,119.4,105s10.3,1.8,15.5,2.3c1.4.1,5.1.5,4-2-.4-1-1-1.8-1.4-2.8s-.9-2.5-1.4-3.7c-2-5.5-2.6-11.4-3.6-17.1s-1.8-11.9-2.4-17.8a128.5,128.5,0,0,0,4.1,14.7c1.7,4.7,3.7,9.2,5.9,13.8s4.3,8.8,7.7,12.4a17.9,17.9,0,0,0,2.5,2.3c1,.7,1.8.6,3,.7h7.8c10.3-.1,20.6-.9,30.9-1.2,2.4-.1,4.8-.2,7.3-.1s5,.3,7.6.3c1,0,1.7-.6,1.4-1.6a18,18,0,0,0-1.7-3.4l-3.3-6a74.3,74.3,0,0,1-6.1-15.2,58.3,58.3,0,0,1-2.6-16.1c2.1,4.1,4.1,8.1,6.6,12s5.2,8,8.1,11.9a86.5,86.5,0,0,0,9.1,10.1l5.2,4.7c1.6,1.3,3.2,2.8,5.3,3.1a153.4,153.4,0,0,0,28.7,1.4,128.2,128.2,0,0,0,13.9-1.3l3.3-.5c.8-.1,2.3-.1,2.5-1.1s-.9-1.6-1.4-2.2a32.8,32.8,0,0,1-2-3.1A118.4,118.4,0,0,1,267,85.6c-.9-2.4-1.8-4.9-2.5-7.3s-1-4.9-1.5-7.3q3.6,8.9,7.5,17.4a32.7,32.7,0,0,0,4.6,7.9c1.9,2.3,3.5,4.9,5.6,6.9s2.8,1,4.3.8a24.1,24.1,0,0,0,4.8-1.2,57.2,57.2,0,0,0,8.9-3.6,86,86,0,0,0,8.4-4.7,43.1,43.1,0,0,1,8.3-4.2,31.9,31.9,0,0,1,9.7-1.7,17.7,17.7,0,0,1,4.6.7,16,16,0,0,0,2.1.5,1.1,1.1,0,0,0,.8-.3l.6-.5C334.3,88.1,332.8,86.4,332.3,85.6Zm-4-3.4a12.4,12.4,0,0,1,1,2,45.6,45.6,0,0,0-5.9-3.8,13.5,13.5,0,0,1,2.9.4c.3,0,1.2,0,1.4.3S328.2,81.9,328.3,82.2Zm-1.7-3.5.2.3a31.7,31.7,0,0,0-5.3-.5h-2.4l-2.7-.9a52.3,52.3,0,0,1,5.7-.6h2.8c.4.1.9,0,1.2.3A5.8,5.8,0,0,1,326.6,78.7Zm-1.5-3.8a57.9,57.9,0,0,0-10.2.2l-2.2.3a17,17,0,0,1-2.2.4,12.9,12.9,0,0,1-2.6-.8l-2.5-.9a51.4,51.4,0,0,1,9.5-1.8,37,37,0,0,1,4.7-.2,34,34,0,0,1,4.5.3A18.6,18.6,0,0,0,325.1,74.9Zm-1.7-4.6a42,42,0,0,0-11.2.1,40.9,40.9,0,0,0-6,.7l-2.7.7a5,5,0,0,0-2.1.9L296.6,71a30.4,30.4,0,0,1,6-2.1c2.1-.5,4.2-.8,6.3-1.1a84.7,84.7,0,0,1,13.3-.7Zm-1.8-4.9a132.6,132.6,0,0,0-16.7,1.1,44.7,44.7,0,0,0-8.1,1.6l-3.3,1.3a1.7,1.7,0,0,1-1.7.1l-2.1-.8a53.7,53.7,0,0,1,14.9-5.1,70.4,70.4,0,0,1,15.8-1.4C320.9,63.3,321.2,64.3,321.6,65.4Zm-1.9-4.9a57.9,57.9,0,0,0-9.3.4,75,75,0,0,0-9.5,1.4,49.6,49.6,0,0,0-9.3,2.7l-3.8,1.7c-.4.2-1,.8-1.5.8s-.7-.2-1-.3l-1.4-.4c.3-.4,1.1-.6,1.5-.8l2.1-1,4-1.7a93,93,0,0,1,8.9-3,81.8,81.8,0,0,1,17.7-2.9A30.1,30.1,0,0,1,319.7,60.5Zm-2.5-4.9a122.2,122.2,0,0,0-18.1,3.1A83.9,83.9,0,0,0,281.5,65a3.1,3.1,0,0,1-1.4.7,10.5,10.5,0,0,1-1.7-.4,46.1,46.1,0,0,1,8.2-5,48.8,48.8,0,0,1,9.2-3.6,99.7,99.7,0,0,1,19.5-4.2C316,53.5,316.6,54.6,317.2,55.6ZM312.1,48l2.1,2.9a66.7,66.7,0,0,0-11,2l-10.4,2.5a30.6,30.6,0,0,0-9.6,3.8l-4.3,2.4-2.1,1.5a7.2,7.2,0,0,0-2,1.4L272,64c5-5.2,11.7-8.7,18.3-11.4A55.1,55.1,0,0,1,301,49.4l5.3-1c1.9-.2,3.9-.2,5.7-.5Zm-5.3-5.6a18.9,18.9,0,0,1,2,2l1.8,1.9a84.1,84.1,0,0,0-23.2,5.3,57.1,57.1,0,0,0-10.3,4.9,23.7,23.7,0,0,0-4.6,3.2l-2.1,1.9a14.6,14.6,0,0,0-1.6,1.9l-1.2-.2a72.3,72.3,0,0,1,13.8-12.7,44.7,44.7,0,0,1,17.8-7.9,23.2,23.2,0,0,1,5.2-.7A3.8,3.8,0,0,1,306.8,42.4ZM284.6,25.9a5,5,0,0,1,1.3.5l1.5.7a52.4,52.4,0,0,0-9.2,5.3,97.3,97.3,0,0,0-7.9,6.5c-2.5,2.4-4.6,5.1-6.9,7.7a77,77,0,0,0-6.2,9.1,38.1,38.1,0,0,1-3.7,4.3l-.9.8c-.5.4-.7.3-1.3.2l-3.1-.3a43.5,43.5,0,0,0,6.3-8.5,73.9,73.9,0,0,1,6.2-8.5,72.9,72.9,0,0,1,8.2-7.5c1.3-1.1,2.4-2.4,3.8-3.4l4.3-2.9a46.7,46.7,0,0,1,4.9-2.7l1.3-.6A9.1,9.1,0,0,1,284.6,25.9Zm-5.9-2.1,1.4.5,1.7.6.6.2a63,63,0,0,0-8.5,4.6,31.9,31.9,0,0,0-3.8,2.6l-3.9,3.1a52.5,52.5,0,0,0-13.1,14.3c-1,1.5-1.9,3.1-3.1,4.6a25.9,25.9,0,0,1-3.2,4.2l.2-.3-1.2,1.2c-.3.3-.8.6-1,1l-3.3-.3c2.7-2.2,4.8-5.4,6.6-8.3s4.2-6.2,6.5-9.3a49,49,0,0,1,16.1-14.6l5.7-3A5.4,5.4,0,0,1,278.7,23.8Zm-6.9-2.4a3.5,3.5,0,0,1,1.3.5l3.3,1.1c-3.1,1.7-6.3,3-9.2,5a56.5,56.5,0,0,0-8.6,6.9,159.8,159.8,0,0,0-13,16.5,52,52,0,0,1-3.5,4.4,39.8,39.8,0,0,1-4.3,3.9c-.2.3-1.9-.1-2.3-.1l-2.8-.2a41.8,41.8,0,0,0,7.3-8.9,56.3,56.3,0,0,1,3.6-4.6l3.6-4.7,3.9-4.5c1.4-1.4,2.9-2.6,4.4-3.9a65.7,65.7,0,0,1,9.3-7.4,44.5,44.5,0,0,1,5.5-3.3A5.1,5.1,0,0,1,271.8,21.4ZM240.6,57.5ZM263.9,19c.4-.1,1.2.3,1.5.4l3.6,1.1.5.2a69.9,69.9,0,0,0-10,6.3,42.5,42.5,0,0,0-4.7,3.7l-4.5,3.6a94.8,94.8,0,0,0-7.9,8.9l-3.7,4.4c-1.2,1.6-2.1,3.3-3.4,4.9a33.4,33.4,0,0,1-4.4,4.8,8.2,8.2,0,0,1-2,1.7,2.9,2.9,0,0,1-1.6,0h-2a51.9,51.9,0,0,0,3.7-4.5c1.3-1.6,2.5-3.2,3.7-4.9s4.7-6,7-9a72.4,72.4,0,0,1,7.6-9,97.8,97.8,0,0,1,9.5-7.5l5.5-4C262.7,19.8,263.4,19,263.9,19Zm-6.4-1.5c.6-.3.7-.2,1.3,0l3,.9-4.4,3.2-4.6,3.2a71.6,71.6,0,0,0-8.4,7.1c-2.7,2.8-5,5.9-7.5,8.8s-4.8,5.7-7,8.6-2.7,3.3-4.1,4.9a22,22,0,0,1-2,2.3c-.6.7-1.6,1.4-2.1,2.1l-3.9-.2c2.7-2.7,5-5.7,7.4-8.6a93.6,93.6,0,0,0,7.2-9.4,61,61,0,0,1,7.2-8.9,76.7,76.7,0,0,1,8.6-7.6l5.2-3.7,2.8-1.9A5.7,5.7,0,0,0,257.5,17.5Zm-1.7-.8a97.4,97.4,0,0,0-18.6,14.6,95.3,95.3,0,0,0-7.5,9.3c-2.5,3.3-5.4,6.3-8,9.6-1.4,1.6-2.8,3.3-4.4,4.8a30.7,30.7,0,0,1-2.5,2.6c-.4.3-.5.5-1,.6H212a63.9,63.9,0,0,0,10.4-13.9c1.5-2.5,3.1-5,4.7-7.4a43,43,0,0,1,6-6.8H233l.4-.3-.2.2c5.9-5.5,12.6-9.9,19.4-14.1Zm-7.1-2,1.7.5a178.2,178.2,0,0,0-16.7,11.7,52.9,52.9,0,0,0-7.1,7.1,68.5,68.5,0,0,0-5.8,8.3,100.4,100.4,0,0,1-7.1,10,58.9,58.9,0,0,1-4.2,4.5c-.3.3-.7.9-1,1a1.7,1.7,0,0,1-1,.1H204l1.7-1.5a54.3,54.3,0,0,0,7.7-9.5c1.1-1.7,2-3.4,3.1-5.1l3.6-5.3c1.2-1.7,2.3-3.5,3.6-5A44.7,44.7,0,0,1,228,27a46.1,46.1,0,0,1,9.7-7.2,63.1,63.1,0,0,1,6.3-3.4l3-1.4C247.7,14.7,247.9,14.5,248.7,14.7Zm-3.2-.8A85,85,0,0,0,234,20.1a66.6,66.6,0,0,0-9.9,8.4,37.4,37.4,0,0,0-4.1,5l-4,5.1c-2.6,3.5-4.8,7.2-7.4,10.7a39.6,39.6,0,0,1-4.8,5.3l-2.5,2.2a2.7,2.7,0,0,1-1.2.9,7.4,7.4,0,0,1-2.1,0h-2c2.9-3.5,5.7-7.1,8.3-10.8s5.7-7.2,8.6-10.8c5.3-6.8,11.6-13.2,18.9-17.8a66.8,66.8,0,0,1,6.7-4.1c.9-.5,2.2-1.3,3.3-1.2A17,17,0,0,1,245.5,13.9ZM198,37a146.2,146.2,0,0,1,18.7-18.2c1.8-1.5,3.6-3,5.5-4.3a16.5,16.5,0,0,1,6.2-3.1,8.1,8.1,0,0,1,2.2-.1c-7.5,3.5-13.5,9.5-19.6,15.1-1.5,1.4-2.9,3-4.4,4.5s-2.9,3-4.3,4.6-2.8,3.1-4.1,4.8-2.8,3.1-4.1,4.8a91.2,91.2,0,0,0-7.4,10.2h0c-.5.7-1,1.4-1.4,2.1h-2.1c1-1.8,1.7-3.9,2.8-5.4l3.6-5C192.2,43.6,195.1,40.3,198,37Zm9.3-26.6a4.7,4.7,0,0,1,1.6.4,74.2,74.2,0,0,1-4.6,6.4l-4.8,7a156,156,0,0,0-8.6,14.1c-1.8,3.3-3.7,6.6-5.4,9.9a40.2,40.2,0,0,1-2.4,4.6c-1,1.5-1.9,3-2.8,4.5l-4.1-.2c4.6-6.1,7.3-13.4,11.1-19.9,2-3.3,3.7-6.7,5.8-9.8a93.7,93.7,0,0,1,6.5-8.7c1.4-1.6,2.8-3.3,4.3-4.9s1.6-1.5,2.3-2.3S207,10.5,207.3,10.4ZM202,9.3c.7-.3,2.5.5,3.2.7-5.3,4.9-10.6,9.9-14.6,16.1-2,3.2-3.8,6.5-5.7,9.8s-3.6,6.7-5.4,10.1a53.2,53.2,0,0,1-6.3,10.5c-.6.6-1.7.3-2.5.2h-3c2.5-3.2,4.2-6.8,6.2-10.2l5.9-10.9a93.1,93.1,0,0,1,14.8-19.4l4.9-4.6A10.1,10.1,0,0,1,202,9.3Zm-2.3-.8.5.2a131.6,131.6,0,0,0-17.7,18.1,81.2,81.2,0,0,0-6.9,10.7l-6.2,11.4a33,33,0,0,1-3.8,5.9,13.4,13.4,0,0,1-1.1,1.4c-.4.3-.8.2-1.4.2l-3.9-.2c11.3-12.7,16.6-29.7,28.9-41.7l5.2-4.9c.7-.6,1.9-2,2.8-2A15.8,15.8,0,0,1,199.7,8.5Zm-10-1,.5-.5c.4-.4.4-.4.9-.4a5.3,5.3,0,0,1,1.8.4h.8a101.6,101.6,0,0,0-17.4,18.5c-5,7.1-9,14.8-13.9,21.9a58.4,58.4,0,0,1-4.2,5.6,19.4,19.4,0,0,1-2.3,2.7c-.4.3-.1.2-.6.2a3.4,3.4,0,0,1-1,0h-1.9A93.1,93.1,0,0,0,160,45.7c2.3-3.5,4.7-7,6.9-10.6s4.4-7.4,6.8-10.9a63.6,63.6,0,0,1,8.3-9.6l5.1-4.7Zm-1-1.4c-6.2,5.6-12.6,11.3-17.5,18.1s-9.7,14.4-14.5,21.5l-4.2,5.9-2.4,2.8-.9,1.1c-.4.3-.2.2-.6.3h-1.1c.6-.6,1.1-1.3,1.6-1.9a64.6,64.6,0,0,0,7-9.5l5.6-10.2,5.9-10.3a81.8,81.8,0,0,1,7.2-9.5l4.8-5c1.5-1.5,3.2-2.6,4.8-4ZM178.3,4.4l3.9.6a91.4,91.4,0,0,0-9,8.6,101.5,101.5,0,0,0-8,10.6c-2.3,3.6-4.6,7.3-6.8,11s-4.3,7.6-6.7,11.2c-1.4,2-3,3.9-4.6,5.8l-2.5,2.7c-.5.6-.5.8-1.3.8h-1.7c2.4-3.4,4.4-7,6.5-10.7,1-1.7,2-3.5,2.9-5.4l2.4-5.3a80,80,0,0,1,14.5-20.6l5.1-5,2.6-2.4C176.4,5.6,177.4,5.1,178.3,4.4Zm-4.8-.5,2,.2c-3.6,2.4-6.5,6-9.6,9a115.3,115.3,0,0,0-8.4,10.1,97.8,97.8,0,0,0-7,11.7l-2.9,5.5-3.5,6a72.3,72.3,0,0,1-4,6.6l-1,1.6c-.5.6-.7,1.1-1.4,1.1h-3.8c2.1-3.6,3.9-7.4,5.8-11.1s4.3-8.2,6.5-12.2a92.8,92.8,0,0,1,7-11.3,120.3,120.3,0,0,1,8.6-10.3c1.7-1.8,3.5-3.5,5.3-5.1a8.6,8.6,0,0,1,2.6-2.1C170.7,3.4,172.4,3.8,173.5,3.9Zm-17.6-.2h.4l4-.2a193.4,193.4,0,0,0-16.5,19.7c-2.5,3.7-4.8,7.5-7.1,11.3s-4,7.6-6,11.4L127.5,52l-1.9,3.2c-.4.6-.3.6-1.1.6h-2c1.5-3.7,3.1-7.4,4.9-11.1s4-6.9,5.9-10.5a155.4,155.4,0,0,1,13.8-20.4c1.3-1.8,2.7-3.5,4.2-5.2L153.8,6C154.4,5.4,155.6,4.5,155.9,3.7Zm-9.5.6c.4-.4.5-.5.9-.6h6.4c-5.8,5.9-10.9,12.6-16,19.2a91.7,91.7,0,0,0-6.8,10.3c-2,3.4-4.2,6.8-6,10.5-1,2-2,4.1-2.9,6.2s-.9,1.9-1.3,2.9-.8,2-1,3h-1.3a4.9,4.9,0,0,1,.4-1.1c.2-.5.3-1,.5-1.6l.9-2.7c.8-2,1.4-4,2.2-6.1,1.5-3.9,3.3-7.8,5.1-11.7s3.8-7.7,5.9-11.6a59,59,0,0,1,7.2-10.7c1.7-1.9,3.5-3.7,5.3-5.5ZM118.3,44.2a93.2,93.2,0,0,1,3.6-11.7c1.5-3.8,2.9-7.7,4.6-11.3a84.3,84.3,0,0,1,5.9-10.6,42,42,0,0,1,3.6-5c.6-.8,1.1-1.6,2.2-1.7l3.5-.2h2.6a80.7,80.7,0,0,0-7.8,8.7,112.6,112.6,0,0,0-6.5,9.9,111.3,111.3,0,0,0-5.7,10.8c-1.6,3.5-3.3,7.1-4.6,10.7a108.5,108.5,0,0,0-3.9,11.8C115.8,51.7,117.3,48,118.3,44.2Zm4.9-39.3c-2,5.2-3.7,10.5-5.3,15.8a80.2,80.2,0,0,0-3.1,16.8c-.2,3.2-.5,6.4-.7,9.5-.1,1.5,0,3-.2,4.5s-.5,2.8-.6,4.3h-5.2c2.2-6.9,2.4-14.3,3.4-21.4s2.4-14.1,5.6-20.6a49.7,49.7,0,0,1,2.7-5.1l1.7-2.4C122,5.5,122.3,4.8,123.2,4.9Zm-4.5.1h1.5c-.9,1.3-1.9,2.6-2.7,4s-1.3,2.8-2.1,4.2a74.6,74.6,0,0,0-3.7,8.8,66.4,66.4,0,0,0-2.3,9.8c-.6,3.2-1.2,6.5-1.5,9.7h0c-.4,4.7-1,9.8-2.7,14.3h-4.1c2.8-5.8,3.2-12.5,4.2-18.8.5-3.1,1.2-6.3,1.9-9.4a40,40,0,0,1,2.8-9.1,72.5,72.5,0,0,1,5.7-9.7l1.8-2.5A3.1,3.1,0,0,1,118.7,5Zm-6.5,1.6c.4-.4.6-.7,1.2-.8l1.5-.3h1c-4.1,5.3-7.9,11.5-9.9,18s-3.3,14-4.5,21.1A35.9,35.9,0,0,1,98,55.6H92c4.1-6.3,5.5-13.4,7.5-20.5,1-3.7,2-7.5,3.3-11.1a51.5,51.5,0,0,1,4.4-10.2,55.4,55.4,0,0,1,3.3-5.1Zm-4.4.2,2.4-.4a46,46,0,0,0-3.2,4.5,50.4,50.4,0,0,0-3.1,4.9,76.7,76.7,0,0,0-4.5,10.6c-1.2,3.5-2.3,7.2-3.3,10.8A83.4,83.4,0,0,1,92.9,48a27.3,27.3,0,0,1-2.7,5.4l-.9,1.4-.3.4c-.2.4-.2.4-.6.5a16,16,0,0,1-3.1,0,48.8,48.8,0,0,0,5.1-9.2c1.3-3.4,2.3-6.8,3.3-10.2s1.8-6.9,3-10.2a53.6,53.6,0,0,1,4.5-9.7c1-1.7,2-3.4,3.1-5.1l1.8-2.4C106.6,8.3,107.6,7.6,107.8,6.8Zm-2.6.5A52.2,52.2,0,0,0,99.5,16a80.9,80.9,0,0,0-4.8,9.8c-2.8,7.1-4.3,14.9-7.8,21.8A38.1,38.1,0,0,1,84,52.8a19.5,19.5,0,0,1-1.7,2.3c-.4.5-.5.5-1.1.5H79.4c2.7-4.2,4.5-9,6.2-13.7.9-2.7,1.7-5.4,2.6-8.1s1.9-5.8,3-8.6c-.1,0-.1.1-.1.2A55,55,0,0,1,101.6,8.1ZM94.4,10.4a5.2,5.2,0,0,1,1.3-.6l2.9-.9a63.9,63.9,0,0,0-7.4,11.2A86.7,86.7,0,0,0,85.6,33c-1.5,4.7-3,9.4-4.9,13.9a53.1,53.1,0,0,1-3,6.4l-.9,1.4a3.5,3.5,0,0,1-.5.8c-.2.2-.2.1-.5.1a15.1,15.1,0,0,1-3.7-.1c3.2-6.3,4.9-13.2,7.5-19.9a91.5,91.5,0,0,1,10.2-19,56,56,0,0,1,3.6-4.9A6.4,6.4,0,0,1,94.4,10.4Zm-9.6,4.7a6.7,6.7,0,0,1,1.7-2A12.8,12.8,0,0,1,89.2,12l2.5-.9A121.1,121.1,0,0,0,80.9,27.7a102.6,102.6,0,0,0-7.6,17.7,59.1,59.1,0,0,1-4.3,10H65.3c1.3-2.9,2.2-5.9,3.3-8.9l3.5-9.3a75.5,75.5,0,0,1,9.3-17.5ZM74.1,21.6a13.1,13.1,0,0,1,1.7-2.4,22.6,22.6,0,0,1,4.9-3.1l2-1.1A107.6,107.6,0,0,0,70.8,33.7a110.3,110.3,0,0,0-4.3,10.8c-1.4,3.6-2.4,7.3-4.2,10.7l-3.6-.3c1.5-3.5,2.2-7.2,3.5-10.8s2.9-7.2,4.6-10.7a77.7,77.7,0,0,1,5.8-9.7Zm-16,18.1a31.1,31.1,0,0,1,4-6.8c1.6-1.9,3.2-3.9,5-5.7l2.5-2.4c-2.9,4.6-6.2,9.1-8.2,14.3a53.4,53.4,0,0,0-2.8,7.6,45.9,45.9,0,0,1-2.9,8.1h-.9C54,49.6,55.9,44.2,58.1,39.7Zm-.8,37.6c-2.6-4.9-3.1-11.1-2.3-16.6,0-.2.1-.5.1-.7h2.7a52.9,52.9,0,0,0,1.3,7.8,70,70,0,0,0,2.1,7.5,55.5,55.5,0,0,0,7.3,14.1A30.1,30.1,0,0,1,57.3,77.3ZM72.7,91.4a18,18,0,0,1-1.9-2,35.2,35.2,0,0,1-3-4.5,50.4,50.4,0,0,1-2.6-5.2L64,76.9c-.1-.5-.4-1-.5-1.4h0a44.2,44.2,0,0,1-2.2-7.9A52.9,52.9,0,0,1,60,59.7h4a63.4,63.4,0,0,0,3.5,17.2,80.8,80.8,0,0,0,3.5,8,66.1,66.1,0,0,0,4.4,7.7A12.8,12.8,0,0,1,72.7,91.4Zm5.6,2.1a31.5,31.5,0,0,1-4.8-7.6,64.8,64.8,0,0,1-3.8-8.5,76.9,76.9,0,0,1-3.5-17.8h4.5a68.6,68.6,0,0,0,1.2,9.1A75.4,75.4,0,0,0,74.1,78c1,2.9,2.1,5.9,3.4,8.8A60.6,60.6,0,0,0,82,94.6ZM86,95.4c-.3,0-1.1,0-1.4-.3a2.8,2.8,0,0,1-.6-.9,39.1,39.1,0,0,1-2.6-4.4A62.5,62.5,0,0,1,77.5,80a111.6,111.6,0,0,1-4.3-20.5h4.1a115.9,115.9,0,0,0,3.4,18.5A65.5,65.5,0,0,0,88,95.1l.6.9Zm5.3,1.1A44.4,44.4,0,0,1,87,88.1c-1.2-3.2-2.4-6.4-3.4-9.7a150.1,150.1,0,0,1-3.8-19.1h6.3a78.5,78.5,0,0,0,3,19.8c.9,3.2,2.1,6.3,3.2,9.4a60.3,60.3,0,0,0,3.8,9.1Zm6.9,1.7a60.3,60.3,0,0,1-3.8-9.1c-1.1-3.2-2.2-6.4-3.1-9.6a82.6,82.6,0,0,1-2-9.9c-.5-3.3-.4-6.8-.6-10.2h3.1A62.2,62.2,0,0,0,92.4,70a54.2,54.2,0,0,0,2.1,9.7,70.6,70.6,0,0,0,3.3,9.8l4.2,9.6Zm7.9,1.8-1.4-.3c-.7-.2-.7-.2-1-.9s-1.5-3.4-2.2-5.2a84,84,0,0,1-3.8-11A92.2,92.2,0,0,1,95.2,71a89.8,89.8,0,0,1-.7-11.5h2.8c0,2.2.3,4.6.4,6.8a36.7,36.7,0,0,0,1.1,7.4,100.9,100.9,0,0,0,4.3,14.2,91,91,0,0,0,5.3,11.4c.2.5.5.9.7,1.4Zm6.3,1.4c-.2-.1-.9-.1-1.1-.3a4.1,4.1,0,0,1-.8-1.3l-2.4-4.6a64.1,64.1,0,0,1-3.9-10.3,96.8,96.8,0,0,1-2.7-10.6c-.6-3.4-1-6.8-1.4-10.2-.1-1.6-.3-3.1-.4-4.6h3.6c.1,3.6.3,7.1.7,10.7a75.1,75.1,0,0,0,2.1,10.5,63.6,63.6,0,0,0,3.5,10.1,46.9,46.9,0,0,0,2.1,4.6c.8,1.6,1.9,3.1,2.7,4.7l1.1,1.9Zm7.5,1.4-1.3-.2c-.5-.1-.8-.1-1.1-.5a34.2,34.2,0,0,1-2.3-4.2,66,66,0,0,1-3.8-8.6,71.5,71.5,0,0,1-2.7-9,66.5,66.5,0,0,1-1.9-9.7c-.5-3.7-.6-7.4-.8-11.2h2.8a71.7,71.7,0,0,0,.9,11.3c.3,1.8.7,3.7,1.1,5.5s.6,3.5,1.1,5.1c2.1,7.3,4.8,14.2,9,20.4l1.2,1.6Zm5.1.9c-.5-.1-.6-.1-.9-.5l-.7-1.1c-.9-1.3-1.8-2.6-2.6-4a41.6,41.6,0,0,1-3.8-8.3,123.6,123.6,0,0,1-4.5-18.9,84.7,84.7,0,0,1-1-11.2v-.6h1.9c.4,8.1,3,16.1,5.3,23.8a96.9,96.9,0,0,0,3.8,10.7c1.5,3.6,3.4,7,4.9,10.5Zm5.7.8a3,3,0,0,1-1.3-.2,4.3,4.3,0,0,1-.5-1.2c-.7-1.6-1.4-3.2-2.2-4.8a76.7,76.7,0,0,1-3.8-8.9c-1.1-3.2-2.1-6.3-2.9-9.4s-1.6-6.6-2.3-9.9A84.1,84.1,0,0,1,116,58.9h5.6a102.4,102.4,0,0,0,2.7,24.1c.4,2,.8,4,1.3,6s1.5,3.6,2.1,5.4a61.2,61.2,0,0,0,5.2,10.6Zm.4-17.8a77.8,77.8,0,0,0,1.8,9.4,43.4,43.4,0,0,0,1.6,4.7,34.3,34.3,0,0,0,1.9,4.4h-1.2c-.5-1.3-1.5-2.5-2.1-3.8L131,97c-.6-1.4-1-2.9-1.5-4.4s-1-2.9-1.4-4.4c-.8-3.1-1.3-6.3-1.9-9.4s-1-6.1-1.3-9.2-.4-7.3-.7-10.9h3.7a33.1,33.1,0,0,0,.4,8.9l1.2,9.5C129.9,80.3,130.5,83.5,131.1,86.7Zm-2.7-30.9a106.7,106.7,0,0,0,5.9-11.1c1.9-4,4-8,6.1-11.9a117.1,117.1,0,0,1,14.9-21.4c1.6-1.9,3.4-3.8,5.1-5.6s1.6-2.1,2.5-2.4a11.5,11.5,0,0,1,3.7.1h.6a94.5,94.5,0,0,0-9.1,8.8,95,95,0,0,0-8.4,9.5c-5,6.9-8.7,14.7-12.7,22.2-1,2-2,4-3.1,5.9s-2.2,3.9-3.2,5.9Zm23.3,49.8a12.9,12.9,0,0,1-2.1-1.9,30.9,30.9,0,0,1-3.6-4.5,86.8,86.8,0,0,1-5.5-11v.2a104.1,104.1,0,0,1-7.3-20.7c-.4-1.6-.8-3.1-1.1-4.7a30.1,30.1,0,0,1-1.1-4.3h1.8a28.8,28.8,0,0,0,1.1,4.2c.4,1.6.9,3.2,1.3,4.8s1.9,6,3,9a117.3,117.3,0,0,0,8.5,17.9l-.2-.3.3.5c2.4,3.8,5,7.4,7.6,11A6.1,6.1,0,0,1,151.7,105.6Zm6,.2a4.8,4.8,0,0,1-1.2,0,5,5,0,0,1-.8-1.2l-.8-1.1c-1.1-1.5-2.1-3-3.1-4.6a107.1,107.1,0,0,1-9.5-19.2c-2.7-6.9-4.8-13.9-6.8-21h3.7c-.1,1.3.7,3,1.1,4.2l1.5,4.8c1,3.3,2.1,6.5,3.3,9.7a154.9,154.9,0,0,0,8.3,18.6,57.8,57.8,0,0,0,5.7,9.6Zm7-.2h-2.6a1.3,1.3,0,0,1-.9-.2,3.1,3.1,0,0,1-.7-.9c-1.1-1.4-1.9-2.9-2.8-4.3-1.7-3.2-3.4-6.4-4.8-9.7a185.1,185.1,0,0,1-7.4-20c-1.3-4-2.5-7.9-3.7-11.8h3.5a19.6,19.6,0,0,0,.9,4.2c.4,1.6.9,3.2,1.4,4.8,1.1,3.2,2.1,6.5,3.3,9.7a166.3,166.3,0,0,0,8.3,18.2c1.8,3.4,3.6,6.7,5.7,9.9Zm2.1-.1c-.9-1.4-1.9-2.8-2.7-4.3l-2.6-4.8c-1.8-3.4-3.3-7-4.8-10.6s-2.6-7.2-3.9-10.8-2.5-7.3-3.5-11a.4.4,0,0,0,.1.3c-.6-1.8-1.1-3.7-1.6-5.6h2.9c0,1.4.8,2.9,1.1,4.2s.9,3.1,1.5,4.7c1,3.3,2.3,6.5,3.6,9.7,2.5,6.1,5.1,12.2,8.2,18.1,1.8,3.3,3.3,6.7,5.2,9.9Zm5.4-.3a65.9,65.9,0,0,1-4.4-8.3c-1.3-3.1-2.8-6.1-4.1-9.2-2.5-6.1-4.9-12.3-7.1-18.6-1.2-3.4-2.1-6.9-3.1-10.3l3,.2c.5,1.7,1.2,3.4,1.7,5s1.3,4,1.9,5.9l3.6,11.3a125.7,125.7,0,0,0,10.1,21.7c.4.7.9,1.4,1.3,2.2Zm6.2-.3h-1c-.5-.1-.5-.3-.8-.8a23.9,23.9,0,0,1-1.3-2.1c-.8-1.4-1.5-2.9-2.2-4.3-1.5-3-2.8-6-4-9.1-2.3-6.3-4.3-12.6-6.3-19a90.7,90.7,0,0,0-3.5-10.4l3.3.3a4.9,4.9,0,0,0,.5,2L164,64l1.5,4.5c1.1,3.1,2,6.4,3,9.5a149.6,149.6,0,0,0,7.2,18.2,56.1,56.1,0,0,0,4.9,8.6Zm6.6-.4-2.4.2c-.7-1.2-1.7-2.3-2.4-3.6a30.5,30.5,0,0,1-2.1-4,91.1,91.1,0,0,1-3.5-8.6c-1-3.2-2.1-6.3-3.1-9.5s-1.7-6.2-2.7-9.2-2.2-6.8-3.6-10.1l2.4.2c2.7,5.8,5.2,11.7,7.5,17.8,1.1,2.9,2.3,5.8,3.4,8.8s2.1,6,3.3,8.9,2.6,6.4,4.6,9.1Zm6.6-.2H189c-.5,0-.6,0-.9-.4a10.5,10.5,0,0,1-.8-1.1c-.8-1.3-1.5-2.8-2.2-4.2a78.3,78.3,0,0,1-3.4-9.2c-2-6.4-4.1-12.8-6.5-19.1A106.2,106.2,0,0,0,170.6,60h2.5c1.3,2.9,2.8,5.6,3.9,8.6l3.9,9.2c2.6,5.9,5,11.7,7.4,17.6a25.6,25.6,0,0,0,5.3,8.8Zm6.4-.2a4.4,4.4,0,0,1-2.3-.1c-1.4-.8-2.3-2.6-3.1-3.8a54.8,54.8,0,0,1-4.1-9.3c-1.3-3.2-2.4-6.5-3.6-9.8s-2.6-6.7-4-10a75.2,75.2,0,0,0-4.8-10.9h3.2A185.2,185.2,0,0,1,186.7,78a179,179,0,0,0,8,17.2,41.3,41.3,0,0,0,5.8,8.9Zm-.6-16.3a147.5,147.5,0,0,0,7.8,16.6,17.9,17.9,0,0,1-2.3-.2c-.5-.2-1-1-1.4-1.5a33.9,33.9,0,0,1-2.7-3.9,59.6,59.6,0,0,1-4.3-8.8c-2.5-6.4-5.2-12.7-7.6-19.2a99.1,99.1,0,0,0-4.5-10.6c3.4,0,6.8.1,10.2.4C192,69.9,194.1,79.1,197.4,87.8Zm-3.8-31.2c-.4.5-.5.9-1.1,1s-2.9-.1-4.3-.1c.7-1.2,1.5-2.3,2.3-3.5l-.2.3c.3-.6.7-1.1,1-1.6h0c0-.1.1-.1.1-.2s-.1.1-.1.2a84.7,84.7,0,0,1,6.9-8.9l3.5-4.3,3.7-4.4c1.2-1.4,2.5-2.6,3.7-4a49.3,49.3,0,0,1,3.9-4c2.9-2.6,5.6-5.4,8.7-7.9s6.8-5.3,10.8-6.9a5.8,5.8,0,0,1,2.9-.6l3.2.6a85.3,85.3,0,0,0-21.7,16,54.4,54.4,0,0,0-4.8,4.8l-4.3,5.1c-2.9,3.6-5.8,7.1-8.5,10.8l-4.4,6A18.3,18.3,0,0,0,193.6,56.6Zm31.2,44.8-4-3.6a79.8,79.8,0,0,1-7.6-7.8,87.7,87.7,0,0,1-6.7-9.3c-2.2-3.2-4.5-6.4-6.5-9.8s-3.4-6.8-5.1-10.2l3.5.2a13,13,0,0,0,.8,1.7h0l.4.6h-.1c.1,0,.1.1.2.2h0a.1.1,0,0,0-.1-.1L201,66l-.2-.2c5.7,11.1,13.4,20.9,21.4,30.5,2.3,2.7,4.7,5.5,7.2,8.1C227.6,104.1,226.1,102.6,224.8,101.4Zm7.4,3.3a1.3,1.3,0,0,1-.9-.5l-1-1.1c-1.2-1.2-2.2-2.4-3.3-3.7l-6.8-7.9a127.7,127.7,0,0,1-11.5-16.1c-2.1-3.4-4.1-6.7-5.9-10.2h.1l-2.1-4.1c-.1,0-.1-.1-.2-.2h3.8a68.4,68.4,0,0,0,4.6,8.9c1.8,3.2,3.7,6.3,5.7,9.4,3.7,5.8,7.5,11.7,11.8,17.2a58.4,58.4,0,0,0,8,8.5A16,16,0,0,1,232.2,104.7Zm5.9.7a3.5,3.5,0,0,1-1.1-.3,6.3,6.3,0,0,1-1.2-1.1,35,35,0,0,1-3.9-3.8,82.3,82.3,0,0,1-6.9-8.7c-4.2-6.2-8.2-12.6-12-19.1-2.2-3.7-4.1-7.6-6.1-11.4a27.1,27.1,0,0,1,2.9.1c.6.3,1.2,1.6,1.5,2.2s1.8,3.2,2.7,4.8c1.8,3.2,3.8,6.4,5.7,9.6s3.8,6.3,5.8,9.4a82.3,82.3,0,0,0,6.5,9c2.7,3.1,5.3,6.2,8.3,9.1l.4.4Zm6,.3a2,2,0,0,1-1.1-.2,8.7,8.7,0,0,1-1-.8c-.6-.7-1.3-1.3-2-2l-3.6-4a78.2,78.2,0,0,1-6.7-8.5c-4-5.9-7.4-12.3-11-18.5-2.1-3.4-3.9-7-6-10.5h1.4c.5,0,.6,0,.9.4s1.1,1.7,1.6,2.5l2.7,4.5c1.9,3.3,3.8,6.5,5.9,9.6,4,6.2,7.7,12.7,12.5,18.4,2.7,3.2,5.5,6.7,9,9.1Zm6.3.1c-1.6,0-3.2-1.6-4.3-2.5s-2.5-2.3-3.7-3.5a96.2,96.2,0,0,1-6.9-8.6c-2.1-2.9-4-6.2-5.9-9.4s-3.9-6.4-5.8-9.6-4.1-7.2-6.3-10.7H221c.5,0,.6,0,1,.5s1.9,2.7,2.8,4.2,3.5,5.9,5.2,8.9c3.3,5.7,6.1,11.6,9.9,17.1,2.1,3,4.3,5.7,6.7,8.5a36.8,36.8,0,0,0,5.4,5Zm4-.1c-.2-.5-1.3-1-1.7-1.3l-1.9-1.6a45.9,45.9,0,0,1-3.7-3.9,75.9,75.9,0,0,1-6.3-8.6c-3.8-6-6.4-12.6-9.9-18.7a89.3,89.3,0,0,0-6.1-9.8,10.4,10.4,0,0,1,2.5,0c.6.2,1.2,1.5,1.5,2.1s2,3.2,2.9,4.9c1.8,3.2,3.4,6.5,5,9.8s3.7,6.8,5.5,10.2a58.7,58.7,0,0,0,5.5,8.5c2.5,3,5.1,6.3,8.4,8.4Zm4.7-.3a9.1,9.1,0,0,1-2.2-1.1,25,25,0,0,1-3.9-3.4,49.8,49.8,0,0,1-6.2-8.3c-3.6-6.5-6.9-13.3-10.1-20a72.3,72.3,0,0,0-5.9-10.5c.8.1,2.4-.1,2.9.4a8.5,8.5,0,0,1,1.6,2.8l3.1,5.8-.2-.3c3.2,6.3,6.6,12.6,10.2,18.6a92.3,92.3,0,0,0,5.4,8.4,38.7,38.7,0,0,0,6.8,7.2l.7.5A5.4,5.4,0,0,1,259.1,105.4Zm4.8-.2a6.2,6.2,0,0,1-1.7-1.1,24.9,24.9,0,0,1-3.8-3.4,51.9,51.9,0,0,1-6.3-8.5,97.5,97.5,0,0,1-4.9-9l-4.8-9.8c-1.8-3.6-3.6-7.2-5.6-10.8l1.9.2h1.2c.4.2.4.1.6.5a13.3,13.3,0,0,1,1.8,3l3.5,6.7h0q4.3,8.7,9.3,17.1c3,5.2,6.1,11.3,11.1,15A6,6,0,0,1,263.9,105.2Zm5.2-.5h-.7c-.4-.1-.7-.5-1-.7a8.4,8.4,0,0,1-1.8-1.5,24.3,24.3,0,0,1-3-3.4,78,78,0,0,1-5.1-8.1C254.4,85,251.7,79,248.7,73c-1.7-3.2-3.2-6.5-5.1-9.7a18.1,18.1,0,0,1,2.3.3c.5.2.9,1.2,1.3,1.7s1.7,3.1,2.5,4.6c1.5,3,3,5.9,4.4,8.9a94.4,94.4,0,0,0,4.5,9c1.5,2.8,3.4,5.4,5,8.2a33,33,0,0,0,6.9,8.5Zm5.3-.8-1.6.3a28.5,28.5,0,0,1-7.6-9c-1.9-3.4-3.9-6.8-5.5-10.4s-3-7-4.7-10.3-3.4-7.1-5.4-10.4l1.1.2a.7.7,0,0,1,.8.4,8.6,8.6,0,0,1,1.1,1.9l2,4.2c1.3,3,2.7,5.9,4,9a75.7,75.7,0,0,0,8.9,16.3A39.4,39.4,0,0,0,274.4,103.9ZM263.1,80.5a78.7,78.7,0,0,0,5.7,13.8l1.6,3c-1.7-2.4-3.4-4.8-4.9-7.3a93,93,0,0,1-4.1-8.4c-2.5-5.5-4.3-11.4-7.1-16.8l5.9.8a47.2,47.2,0,0,0,1.1,7.4A68,68,0,0,0,263.1,80.5Zm-.6-21.7c-.7,1.1-1.2,2.3-1.9,3.5l-5.1-.7a25.8,25.8,0,0,0,4.5-5.4h.1a.1.1,0,0,0-.1.1c.1-.1.1-.1.1-.2h0a79.4,79.4,0,0,1,6.3-8.9c1.2-1.4,2.2-2.9,3.4-4.3l4-4.3c1.3-1.2,2.7-2.2,4.1-3.4A44.7,44.7,0,0,1,282,32a42.5,42.5,0,0,1,4.6-2.7,16.3,16.3,0,0,1,2.3-1.1c.5-.1.7.1,1.2.3l1.1.7-5.4,3.9-5.6,4.3a60.3,60.3,0,0,0-10,10.2,77.7,77.7,0,0,0-5.4,7.4C264,56.2,263.3,57.5,262.5,58.8Zm4.1.2,3.7-4.4a79.4,79.4,0,0,1,8.1-8.3h0a67.2,67.2,0,0,1,10.1-7.4,16.2,16.2,0,0,1,5.3-2,8,8,0,0,1,3.1-.4,15.2,15.2,0,0,1,2.8.9,12.9,12.9,0,0,1,3.2,1.9h0l1,.7c-12.4-.2-23.7,6.8-32.3,15.2a39.5,39.5,0,0,0-3.3,3.7l-1.6,1.9a5.5,5.5,0,0,0-1.4,2.1l-2.1-.3C264,61.2,265.5,60.3,266.6,59Zm16.3,42.9c-.9-.2-1.6-1.2-2.2-1.9l-2.2-2.6L276.6,95c-2.9-3.6-4.5-7.9-6.4-12,0,.1,0,.2.1.2-.9-1.9-1.8-4-2.6-6-1.4-3.7-3.1-7.4-4.4-11.2a8,8,0,0,1,1.5.3c.3.1.5.7.7,1a15.9,15.9,0,0,1,1.3,2.2,46.7,46.7,0,0,1,2.7,4.9c1.7,3.3,3.1,6.7,4.8,10,3.2,6.1,5.6,13.2,11.6,17.1A10.3,10.3,0,0,1,282.9,101.9Zm7.6-1.6c-.6.1-1.7.7-2.3.6s-1.4-.8-1.9-1.1a19.9,19.9,0,0,1-3.3-3.2,40.7,40.7,0,0,1-4.5-8.2c-2.7-6-4.9-12.3-8.3-17.9-.5-.9-1.1-1.8-1.6-2.8h0l-.6-1,1.4.2.6.8c.4.7.9,1.4,1.4,2.1a47.6,47.6,0,0,1,2.8,4.9c1.5,3,3.2,6,4.7,9,3.1,5.8,5.1,12.9,11.3,16.3H290l.4.2Zm1.9-1a5.4,5.4,0,0,1-2-1,15.7,15.7,0,0,1-3.3-3c-2.2-2.5-3.6-5.9-4.7-9a91.2,91.2,0,0,0-4.5-9.5,68,68,0,0,0-5.1-9.1l1.5.2c.4.2.4.3.7.7l1.5,2,2.7,4.5a36.2,36.2,0,0,1,2.4,4.3c.7,1.4,1.6,2.8,2.3,4.3a75.8,75.8,0,0,0,4.5,8.4,15.9,15.9,0,0,0,6.7,6.4C294.3,98.8,293.2,99.6,292.4,99.3Zm5.5-2.2A2.1,2.1,0,0,1,296,97a7.2,7.2,0,0,1-1.9-1.1,15.7,15.7,0,0,1-3.1-3.2,80.9,80.9,0,0,1-4.2-7.6c-.6-1.3-1-2.7-1.7-4s-1.3-2.6-1.9-3.9a62.7,62.7,0,0,0-5.1-8.6c1.5.3,2.4,1.7,3.4,2.7l2.7,3.2c1.8,2.6,3.7,5.2,5.3,7.9s2.6,5.5,4.2,8.1,3.2,4.8,5.9,5.8Zm4.7-2.4a2.1,2.1,0,0,1-1.9.1,6.7,6.7,0,0,1-3.5-2.3c-1.9-2.2-3-4.8-4.3-7.5a75.9,75.9,0,0,0-4.4-7.9,62.1,62.1,0,0,0-5.1-7.2,5.3,5.3,0,0,1,1.8.4,5.5,5.5,0,0,1,1.4,1.2,23.5,23.5,0,0,1,3,3.3,59.2,59.2,0,0,1,4.9,7.4h0c.1,0,.1.1.1.2,2.6,4.2,4.9,9.5,9.9,11.2Zm4.2-2.5-.5.3c-.7-.5-2-.6-2.8-1.1a9.1,9.1,0,0,1-2.4-2,32.1,32.1,0,0,1-3.6-5.9c-2.3-4.3-4.4-8.6-7.7-12.2a4.8,4.8,0,0,1,1.7.5,4.3,4.3,0,0,1,1,.9,18.8,18.8,0,0,1,2.4,2.5c1.6,1.9,3,4,4.4,6a47,47,0,0,0,4.5,5.5c1.5,1.6,3.2,3.4,5.4,4.1Zm6-3.1c-.4.1-.9.5-1.3.5a4.1,4.1,0,0,1-1.6-.3,7.9,7.9,0,0,1-2.5-1.5,20,20,0,0,1-3.9-4.3c-1-1.6-2.2-3.2-3.2-4.9a62.2,62.2,0,0,0-3.5-5.4l2.7,1a2.3,2.3,0,0,1,1.3.7,4.7,4.7,0,0,0,1,1c1.3,1.5,2.5,3.1,3.7,4.7,2.3,3.1,4.5,6.5,8.2,8.1Zm3.6-1.3c-.3-.4-1.1-.4-1.5-.6a6.9,6.9,0,0,1-1.9-1,13.8,13.8,0,0,1-3-2.9c-1.8-2.3-3-4.9-4.9-7.1,1.3.5,3.2.9,4.1,1.9s2.2,2,3.1,3.1,4.1,4.5,6.8,6Zm6.1-1-1.6-.6a13.3,13.3,0,0,1-3-1.8c-1.7-1.5-3-3.5-4.6-5.2a35.7,35.7,0,0,1,3.5,1,19.5,19.5,0,0,1,2.3,1.7l5.2,4.8A11.5,11.5,0,0,1,322.5,86.8Zm6.4.3a10.1,10.1,0,0,1-1.7-.3,18.3,18.3,0,0,1-1.6-1.3c-1.2-1-2.3-2.1-3.4-3.2a33.9,33.9,0,0,1,8,5.1Z" style="fill:#c5a45a"/><path d="M290.4,100.2h0Z" style="fill:#c5a45a"/><path d="M246.6,100.9h-.1C246.6,100.8,246.6,100.8,246.6,100.9Z" style="fill:#c5a45a"/><polygon points="260 56.2 260 56.2 260 56.2 260 56.2" style="fill:#c5a45a"/><path d="M149.3,53.8h-.2c0,.1,0,.1-.1.1Z" style="fill:#c5a45a"/><path d="M85.6,41.7v.2h-.1A.4.4,0,0,0,85.6,41.7Z" style="fill:#c5a45a"/><path d="M146.9,94.9h0Z" style="fill:#c5a45a"/><path d="M103.2,88.1v-.2h0C103.1,87.9,103.2,88,103.2,88.1Z" style="fill:#c5a45a"/><path d="M85.5,42Z" style="fill:#c5a45a"/><path d="M250.8,72.2h.1l-.2-.3C250.7,72.1,250.8,72.1,250.8,72.2Z" style="fill:#c5a45a"/></svg>
